<?xml version="1.0" encoding="utf-8"?>
<!-- Generator: Adobe Illustrator 28.3.0, SVG Export Plug-In . SVG Version: 6.00 Build 0)  -->
<svg version="1.1" xmlns="http://www.w3.org/2000/svg" xmlns:xlink="http://www.w3.org/1999/xlink" x="0px" y="0px"
	 viewBox="0 0 1080 1080" style="enable-background:new 0 0 1080 1080;" xml:space="preserve">
<style type="text/css">
	.st0{fill:#FFFFFF;}
	.st1{fill:#E0712C;stroke:#000000;stroke-miterlimit:10;}
	.st2{fill:#E0712C;}
	.st3{display:none;}
</style>
<g id="Warstwa_1">
	<g>
		<path class="st0" d="M495.7,769.6c-49.3,0-80.4-27.2-97.8-50c-18.9-24.8-26.1-49.8-26.2-50.1l-29.2-161l9,1.5l0.7-105.4l-5.4-1.3
			l-4.4-30.2l29.3-122.6l5-27.4l73.8-70.3l220-8.3l81.5,80.9l24.9,364.1l-14.7,27.7l-87,124.3c-3.7,1.1-69.8,20.9-169.8,27.8
			C502.1,769.5,498.9,769.6,495.7,769.6z"/>
		<path d="M670.4,145l81.2,80.6l24.8,363.8l-14.7,27.5L674.9,741c-5.2,1.6-70.8,20.9-169.5,27.7c-3.3,0.2-6.5,0.3-9.7,0.3
			c-21.7,0-41.6-5.2-59.4-15.5c-14.2-8.3-27-19.8-38-34.3c-18.4-24.2-25.8-48.7-26.1-49.9l-29.1-160.2l7.7,1.3l1.2,0.2l0-1.2
			l0.7-104.4l0-0.8l-0.8-0.2l-4.7-1.2l-4.3-29.8l29.3-122.5l0,0l0,0l5-27.2l73.6-70L670.4,145 M670.8,144l-220.4,8.3l-74.1,70.5
			l-5,27.6L341.9,373l4.4,30.7l5.3,1.3L351,509.4l-9.1-1.6l29.3,161.7c0,0,28.6,100.5,124.5,100.5c3.2,0,6.4-0.1,9.8-0.3
			c103.7-7.1,170.1-27.9,170.1-27.9l87.1-124.4l14.8-27.9l-24.9-364.4L670.8,144L670.8,144z"/>
	</g>
	<g>
		<polygon class="st0" points="472.7,562.7 452.5,550.9 447.3,535.7 463.2,492.3 473,436.2 476.5,420.9 485,416.2 503.3,422.7 
			529.9,500 545,510.6 553.8,539.9 536.3,562.7 		"/>
		<path d="M485.1,416.8l17.8,6.4l26.5,76.9l0.1,0.3l0.3,0.2l14.8,10.5l8.6,28.8l-17.2,22.4h-63.2l-19.9-11.7l-5.1-14.9l15.9-43.2
			l0-0.1l0-0.1l9.8-56l3.4-15.1L485.1,416.8 M485,415.7l-8.9,4.9l-3.6,15.6l-9.8,56l-16,43.6l5.3,15.6l20.4,12h64l17.8-23.2
			l-8.9-29.7l-15.1-10.7l-26.7-77.3L485,415.7L485,415.7z"/>
	</g>
	<g>
		<path class="st0" d="M555.8,422.1l28.5-17c0.3-0.1,1.7-0.5,3.7-0.9c-1.4,2.5-2.2,5.3-2.2,8.2c0,9.1,7.4,16.5,16.5,16.5
			c0.4,0,0.7,0,1.1,0l-1.7,0.4L555.8,422.1z M608.1,427.8c6.3-2.3,10.7-8.4,10.7-15.5c0-1.6-0.2-3.2-0.7-4.7l17.4,8.1l-17,9.8
			L608.1,427.8z"/>
		<path d="M587.1,404.8c-1.1,2.3-1.7,4.9-1.7,7.5c0,6.7,3.9,12.5,9.5,15.2l-37.6-5.8l27.3-16.3C584.8,405.4,585.8,405.1,587.1,404.8
			 M618.9,408.5l15.6,7.2l-16.1,9.3l-6.7,1.4c4.6-3,7.6-8.3,7.6-14.2C619.3,411.1,619.2,409.8,618.9,408.5 M589.1,403.4
			c-3,0.6-5,1.2-5,1.2l-29.8,17.8l47.4,7.3l17-3.7l17.9-10.3l-19.4-9c0.7,1.8,1,3.7,1,5.6c0,8.8-7.2,16-16,16s-16-7.2-16-16
			C586.3,409,587.4,405.9,589.1,403.4L589.1,403.4z"/>
	</g>
	<path class="st1" d="M589.1,403.4c3.7-0.7,8.9-1.5,13.7-1c8.6,0.8,14.2,4.2,14.2,4.2l0.3,0.1"/>
	<g>
		<path class="st2" d="M602.3,427.8c-8.5,0-15.5-7-15.5-15.5c0-3,0.9-6,2.6-8.5c3.7-0.7,7.2-1.1,10.3-1.1c1.1,0,2.1,0,3,0.1
			c8.4,0.8,14,4.1,14,4.2l0.2,0.1c0.6,1.7,0.9,3.5,0.9,5.3C617.8,420.9,610.9,427.8,602.3,427.8z"/>
		<path d="M599.7,403.2c1,0,2.1,0,3,0.1c8.2,0.8,13.7,4,13.8,4.1l0,0c0.6,1.6,0.8,3.3,0.8,4.9c0,8.3-6.7,15-15,15s-15-6.7-15-15
			c0-2.9,0.8-5.7,2.4-8.1C593.3,403.6,596.7,403.2,599.7,403.2 M599.7,402.2c-3.8,0-7.7,0.6-10.6,1.2c-1.7,2.6-2.8,5.6-2.8,9
			c0,8.8,7.2,16,16,16s16-7.2,16-16c0-2-0.4-3.9-1-5.6l-0.3-0.1c0,0-5.6-3.4-14.2-4.2C601.8,402.2,600.7,402.2,599.7,402.2
			L599.7,402.2z"/>
	</g>
	<g>
		<path class="st0" d="M529.3,417.9c-1.2-1.8-6.3-15-9.5-23.5l15.4-15.2l50.2,1.5l63.4,9.8l28.4,24.2l-21.8-4.3
			c-15.8-6.8-39.7-17.2-40.7-17.9c-0.2-0.2-0.4-0.4-9.3-0.4c-9.8,0-24.4,0.3-24.6,0.3l-0.2,0l-0.1,0.1c-11,8.9-27.9,22.3-29.3,22.9
			C542.2,416.1,531.7,417,529.3,417.9z"/>
		<path d="M535.4,379.8l50,1.5l63.2,9.7l26.9,22.9l-19.9-3.9c-15.5-6.7-38.9-16.8-40.6-17.8c-0.4-0.3-1.1-0.5-9.6-0.5
			c-9.8,0-24.4,0.3-24.6,0.3l-0.3,0l-0.3,0.2c-10.3,8.3-27.2,21.7-29.1,22.8c-0.9,0.1-5.8,0.4-10.6,0.8c-6.8,0.6-9.7,1.1-10.9,1.4
			c-1.4-2.5-5.5-13-9.1-22.7L535.4,379.8 M535,378.8l-15.8,15.6c0,0,9,24.2,9.9,24.2c0,0,0,0,0.1,0c0.7-1,22-2.5,22-2.5c0,0,0,0,0,0
			c1,0,29.5-23,29.5-23s14.6-0.3,24.6-0.3c5,0,8.8,0.1,9,0.3c0.7,0.7,40.9,18,40.9,18l23.8,4.7l-30-25.6l-63.6-9.8L535,378.8
			L535,378.8z"/>
	</g>
	<g>
		<path class="st0" d="M554.6,440.6c-1.1-1-15.1-13.5-21-17.7c6.7,1.1,23.2,3.5,24.6,3.7l25.3,14.5l39.8,3.6l-36.5,14.5L554.6,440.6
			z"/>
		<path d="M535.5,423.7c7.3,1.1,20.6,3.1,22.5,3.4l25.2,14.4l0.2,0.1l0.2,0l37.6,3.4l-34.3,13.6l-31.9-18.4
			C553.1,438.5,541.9,428.5,535.5,423.7 M530.9,421.9c-0.1,0,0.1,0,0.4,0.1c-0.1,0-0.2-0.1-0.2-0.1
			C530.9,421.9,530.9,421.9,530.9,421.9L530.9,421.9z M531.2,422c3.2,1.3,23.1,19,23.1,19l32.4,18.7l38.7-15.3l-41.8-3.8l-25.3-14.4
			C558.3,426.1,534.5,422.5,531.2,422L531.2,422z"/>
	</g>
	<g>
		<path class="st0" d="M374.5,418.1l-4.7-16.3h-5.4v-6l10.9-16.6l22.5-4.2l36.5,13.3l34,20.2l-27.5-3.6c-1.5-0.6-23.2-8.7-26-8.7
			c-0.1,0-0.2,0-0.3,0c-0.3,0.1-1.6,0.2-7.4,0.2c-7.6,0-18.4-0.2-18.5-0.2l-0.2,0l-7,4.9l1.9,1.4c-0.2,2.2-1.5,14.9-1.5,18.6
			L374.5,418.1z"/>
		<path d="M397.8,375.6l36.3,13.2l32,18.9l-25.1-3.2c-2.8-1.1-23.3-8.7-26.1-8.7c-0.2,0-0.3,0-0.4,0c-0.2,0.1-1.4,0.2-7.3,0.2
			c-7.6,0-18.3-0.2-18.5-0.2l-0.3,0l-0.3,0.2l-6.2,4.4l-1.1,0.8l1.2,0.8l1.1,0.8c-0.3,2.9-1.3,13.4-1.5,17.6l-6.6-2.7l-4.5-15.7
			l-0.2-0.7h-0.8h-4.6V396l10.7-16.3L397.8,375.6 M397.9,374.6l-22.9,4.2l-11.1,16.9v6.7h5.6l4.7,16.2l8.4,3.4
			c-0.2-1.8,1.6-19.5,1.6-19.5l-1.6-1.1l6.2-4.4c0,0,10.8,0.2,18.5,0.2c3.9,0,6.9,0,7.5-0.2c0,0,0.1,0,0.2,0
			c2.8,0,25.8,8.7,25.8,8.7l30,3.9l-36.2-21.4L397.9,374.6L397.9,374.6z"/>
	</g>
	<g>
		<polygon class="st0" points="403.2,451 399.9,436.8 428,436.8 458,427 459.6,431.5 449.6,446.8 426.2,456.5 		"/>
		<path d="M457.7,427.6l1.3,3.8l-9.8,15l-23.1,9.6l-22.5-5.4l-3.1-13.3h27.4h0.2l0.2,0L457.7,427.6 M458.3,426.3l-30.4,10h-28.7
			l3.6,15.1l23.4,5.6l23.7-9.8l10.2-15.7L458.3,426.3L458.3,426.3z"/>
	</g>
	<g>
		<polygon class="st0" points="472.7,562.7 452.5,550.9 447.4,535.8 454.1,529.5 466.1,542.4 491.4,544.2 514.8,529.3 546.6,540.4 
			548,547.4 536.3,562.7 		"/>
		<path d="M514.9,529.9l31.2,10.9l1.3,6.6l-11.4,14.9h-63.2l-19.9-11.7l-5-14.6l6.1-5.8l11.5,12.4l0.3,0.3l0.4,0l24.9,1.8l0.3,0
			l0.3-0.2L514.9,529.9 M514.8,528.8l-23.6,14.9l-24.9-1.8l-12.2-13.1l-7.3,6.9l5.3,15.6l20.4,12h64l12-15.7L547,540L514.8,528.8
			L514.8,528.8z"/>
	</g>
	<g>
		<polygon class="st2" points="520.9,552.4 517.7,544.9 508,550.8 515,544.2 528.2,544.2 535.8,548.7 525,554.7 		"/>
		<path d="M528.1,544.7l6.7,4l-9.8,5.4l-3.7-2l-3-6.8l-0.3-0.6H528.1 M517.2,544.7l-0.2,0.1l-5.2,3.2l3.5-3.3H517.2 M528.3,543.7
			h-13.6l-10.4,10l13.1-8l3.1,7.1l4.4,2.4l11.8-6.6L528.3,543.7L528.3,543.7z"/>
	</g>
	<g>
		<polygon class="st2" points="460.9,547.5 463.5,544.6 465.4,550.3 		"/>
		<path d="M463.3,545.6l1.2,3.5l-2.8-1.8L463.3,545.6 M463.7,543.7l-3.6,3.9l6.2,3.9L463.7,543.7L463.7,543.7z"/>
	</g>
	<g>
		<polygon class="st0" points="497.7,627.3 476.2,622.6 449.1,620.1 479.7,609.4 500.6,615 514.1,609.4 528.3,609.4 569.1,617.4 
			551,619.9 520.5,627.3 		"/>
		<path d="M528.2,609.9l37.9,7.4l-15.2,2.1l0,0l0,0l-30.4,7.4h-22.7l-21.4-4.7l-0.1,0l-0.1,0l-24.8-2.3l28.3-9.9l20.6,5.5l0.3,0.1
			l0.3-0.1l13.3-5.6H528.2 M528.3,608.9H514l-13.5,5.6l-20.9-5.6l-32.9,11.6l29.3,2.7l21.6,4.7h22.9l30.5-7.4l21-3L528.3,608.9
			L528.3,608.9z"/>
	</g>
	<g>
		<polygon class="st0" points="481.7,654.9 463.6,640.2 447.9,621 476.1,623.6 497.6,628.3 520.6,628.3 551.2,620.9 571,618.1 
			556.1,637.8 530.7,656.1 500.6,659.3 		"/>
		<path d="M569.9,618.8l-14.2,18.7l-25.2,18.1l-29.9,3.2l-18.7-4.4l-18-14.6l-14.9-18.2l26.9,2.4l21.5,4.7l0.1,0h0.1h22.9h0.1l0.1,0
			l30.5-7.4L569.9,618.8 M572.1,617.4l-21,3l-30.5,7.4h-22.9l-21.6-4.7l-29.3-2.7l16.4,20.1l18.2,14.8l19.1,4.4l30.3-3.3l25.5-18.4
			L572.1,617.4L572.1,617.4z"/>
	</g>
	<g>
		<path class="st0" d="M769.5,465.6l-7.5-75.2l39.5,2.9v25.1L794,447v10l-2.8,30.6l0.1,0.1c4.1,8.4,3.1,17.4,0,21.6
			c-2.7,3.7-11.4,4.4-13.4,4.5L769.5,465.6z"/>
		<path d="M762.6,391l38.5,2.8v24.6l-7.5,28.4l0,0.1v0.1v9.9l-2.8,30.5l0,0.3l0.1,0.3c4,8.2,3.1,17,0.1,21c-2.2,3-9.2,4.1-12.6,4.3
			l-8.3-47.8L762.6,391 M761.4,389.9l7.5,75.8l8.5,48.7c0,0,11-0.3,14.2-4.7c3.3-4.4,4.1-13.6,0-22.1l2.8-30.5v-9.9l7.6-28.5v-25.7
			L761.4,389.9L761.4,389.9z"/>
	</g>
	<g>
		<path class="st2" d="M602.3,418.3c-3.3,0-5.9-2.7-5.9-5.9s2.7-5.9,5.9-5.9s5.9,2.7,5.9,5.9S605.6,418.3,602.3,418.3z"/>
		<path d="M602.3,406.9c3,0,5.4,2.4,5.4,5.4c0,3-2.4,5.4-5.4,5.4s-5.4-2.4-5.4-5.4C596.9,409.3,599.3,406.9,602.3,406.9
			 M602.3,405.9c-3.6,0-6.4,2.9-6.4,6.4c0,3.6,2.9,6.4,6.4,6.4c3.6,0,6.4-2.9,6.4-6.4C608.8,408.8,605.9,405.9,602.3,405.9
			L602.3,405.9z"/>
	</g>
	<g>
		<path class="st0" d="M436,428.3c3.7-3.1,5.8-7.7,5.8-12.6c0-2.9-0.8-5.8-2.2-8.3l17.7,15.2L436,428.3z"/>
		<path d="M441.1,409.3l15.2,13l-18.5,5c2.9-3.1,4.6-7.2,4.6-11.6C442.3,413.5,441.9,411.3,441.1,409.3 M438.1,405.4h-0.5
			c2.3,2.8,3.7,6.3,3.7,10.2c0,5.9-3.1,11-7.8,13.8l24.9-6.7L438.1,405.4L438.1,405.4z"/>
	</g>
	<g>
		<path class="st0" d="M413.6,431c-3.9,0-4.6-0.1-4.7-0.1l-10.5-3.5l-3.8-6.3l6.9-11.6l9.1-2.2c-1.4,2.5-2.2,5.3-2.2,8.2
			c0,6.8,4.1,12.8,10.2,15.4C417,431,415.2,431,413.6,431C413.6,431,413.6,431,413.6,431z"/>
		<path d="M409.7,408.2c-1.1,2.3-1.7,4.9-1.7,7.5c0,6.2,3.4,11.9,8.6,14.9c-1,0-2.1,0-3,0c-3.5,0-4.3,0-4.6-0.1l-10.3-3.4l-3.5-5.8
			l6.6-11.1L409.7,408.2 M411.7,406.7l-10.5,2.6l-7.1,12l4,6.7c0,0,10,3.3,10.7,3.6c0.2,0.1,2.2,0.1,4.8,0.1c2.6,0,5.8,0,8.3-0.1
			c-7.4-1.5-12.9-8-12.9-15.8C409,412.3,410,409.2,411.7,406.7L411.7,406.7z"/>
	</g>
	<g>
		<path class="st2" d="M422,431c-7.2-1.5-12.5-7.9-12.5-15.3c0-3.1,0.9-6,2.5-8.6l4.8-1.2h20.6c2.2,2.8,3.4,6.2,3.4,9.7
			c0,5.5-2.8,10.5-7.5,13.4l-7.1,1.9C425.8,430.9,424.2,431,422,431z"/>
		<path d="M437.2,406.4c2,2.6,3.1,5.9,3.1,9.2c0,5.3-2.7,10.1-7.2,12.9l-7,1.9c-0.4,0-2,0-4.1,0c-7-1.5-12-7.7-12-14.8
			c0-2.9,0.8-5.7,2.4-8.1l4.5-1.1H437.2 M437.6,405.4h-20.9l-5,1.2c-1.7,2.6-2.7,5.7-2.7,9c0,7.8,5.6,14.3,12.9,15.8
			c2.5,0,4.3,0,4.3,0l7.2-2c4.7-2.8,7.8-8,7.8-13.8C441.3,411.8,439.9,408.2,437.6,405.4L437.6,405.4z"/>
	</g>
	<g>
		<circle class="st2" cx="425.1" cy="415.7" r="6.2"/>
		<path d="M425.1,409.9c3.2,0,5.7,2.6,5.7,5.7c0,3.2-2.6,5.7-5.7,5.7c-3.2,0-5.7-2.6-5.7-5.7C419.4,412.5,422,409.9,425.1,409.9
			 M425.1,408.9c-3.7,0-6.7,3-6.7,6.7s3,6.7,6.7,6.7s6.7-3,6.7-6.7S428.9,408.9,425.1,408.9L425.1,408.9z"/>
	</g>
	<g>
		<path class="st2" d="M596.1,412.2c-1.6,0-2.9-1.3-2.9-2.9s1.3-2.9,2.9-2.9c1.6,0,2.9,1.3,2.9,2.9S597.7,412.2,596.1,412.2z"/>
		<path d="M596.1,406.9c1.3,0,2.4,1.1,2.4,2.4s-1.1,2.4-2.4,2.4s-2.4-1.1-2.4-2.4S594.8,406.9,596.1,406.9 M596.1,405.9
			c-1.9,0-3.4,1.5-3.4,3.4c0,1.9,1.5,3.4,3.4,3.4s3.4-1.5,3.4-3.4C599.5,407.4,598,405.9,596.1,405.9L596.1,405.9z"/>
	</g>
	<g>
		<path class="st2" d="M418.4,415.7c-1.6,0-2.9-1.3-2.9-2.9s1.3-2.9,2.9-2.9s2.9,1.3,2.9,2.9S420,415.7,418.4,415.7z"/>
		<path d="M418.4,410.3c1.3,0,2.4,1.1,2.4,2.4s-1.1,2.4-2.4,2.4s-2.4-1.1-2.4-2.4S417.1,410.3,418.4,410.3 M418.4,409.3
			c-1.9,0-3.4,1.5-3.4,3.4s1.5,3.4,3.4,3.4s3.4-1.5,3.4-3.4S420.3,409.3,418.4,409.3L418.4,409.3z"/>
	</g>
</g>
<g id="Warstwa_3">
	<g>
		<polygon class="st2" points="307.6,425.8 306,418.9 312.5,417.2 351.2,407.1 351.1,416.3 309,425.8 		"/>
		<path d="M350.6,407.7l-0.1,8.1l-41.6,9.5H308l-1.4-6.1l6-1.5L350.6,407.7 M351.7,406.4l-39.3,10.3l-7,1.8l1.8,7.8h1.8l42.5-9.7
			L351.7,406.4L351.7,406.4z"/>
	</g>
	<g>
		<path class="st2" d="M394.7,517.1c-22.1,0-43.8-4-52.6-9.7c-17.5-11.3-30.6-71.4-30.7-72.1l-5.5-13.6c0.7-10,20.6-13.6,39.9-17
			l0.3-0.1l0.1-0.3c0.5-1.9,15-4.5,37.6-4.5c13.5,0,58.4,1.2,73.2,16c6.1,24.4,3.7,47.4-7.3,70.2l0,0.1l0,0.1
			c0,0.1-1.4,7.4-13.4,21.3C431.2,513.6,415.6,517.1,394.7,517.1C394.7,517.1,394.7,517.1,394.7,517.1z"/>
		<g>
			<path d="M383.8,400.4c27.5,0,61,4.2,72.7,15.8c6,24.2,3.6,47-7.3,69.7l-0.1,0.1l0,0.1c0,0.1-1.4,7.3-13.3,21.1
				c-5.1,5.9-20.5,9.4-41.2,9.4c-22.1,0-43.6-3.9-52.3-9.6c-17.3-11.2-30.4-71.1-30.5-71.7l0-0.1l0-0.1l-5.4-13.4
				c0.8-9.5,21.3-13.2,39.5-16.5l0.6-0.1l0.2-0.6C347.7,402.8,362.3,400.4,383.8,400.4 M383.8,399.4c-20.6,0-37.4,2.2-38.1,4.9
				c-20,3.6-39.8,7.3-40.3,17.6l5.5,13.6c0,0,13.1,60.8,30.9,72.4c9.4,6,31.9,9.7,52.9,9.7c18.6,0,36.1-2.9,42-9.7
				c12.3-14.2,13.5-21.6,13.5-21.6c11.7-24.3,13-47.8,7.3-70.7C445.4,403.4,411.2,399.4,383.8,399.4L383.8,399.4z"/>
		</g>
	</g>
	<g>
		<polygon class="st2" points="461.9,477.6 464,462.7 461,462.3 458.5,471.5 458,472.1 461.4,451.9 462.3,441.9 462.9,442.1 
			465,443.4 465,450 467,448.4 468.6,441.7 470.2,442.1 463.6,477.6 		"/>
		<path d="M468.9,442.3l0.7,0.1l-6.4,34.7h-0.7l2-13.9l0.1-1l-1-0.1l-2.1-0.2l-0.9-0.1l-0.2,0.8l-0.8,2.9l2.3-13.6l0,0l0,0l0.8-9.2
			l1.8,1v5.3v2.1l1.6-1.3l1-0.8l0.3-0.2l0.1-0.3L468.9,442.3 M468.2,441.1l-1.6,7l-1,0.8v-5.9l-2.4-1.4l-1.2-0.5l-0.9,10.6
			l-3.7,21.9l1.8-1.9l2.3-8.9l2.1,0.2l-2.1,15h2.7l6.8-36.4L468.2,441.1L468.2,441.1z"/>
	</g>
	<g>
		<path class="st2" d="M612.8,511c-24.6,0-50.5-3.8-58.2-7.2c-13.4-5.9-22.6-22.3-22.7-22.5l-0.1-0.1l-0.1-0.1
			c-7.3-4.6-11.3-14.1-15.2-23.3c-0.6-1.5-1.3-3-1.9-4.4l-9.6-45.2c4.2-1.9,43-18.9,71.6-21.3c5-0.4,11.3-0.6,18.7-0.6
			c35.6,0,84.7,4.8,91,8.9c2.9,5.6-0.6,21.5-0.7,21.6l0,0.1l0,0.1c0,0.5,3.1,46.9-11.1,75.1C666.2,508.6,632.3,511,612.8,511
			C612.8,511,612.8,511,612.8,511z"/>
		<g>
			<path d="M595.2,386.9c35.4,0,84,4.7,90.6,8.8c2.3,4.6,0.2,16.8-0.8,21.2l0,0.1l0,0.1c0,0.5,3.1,46.8-11,74.9
				c-8.1,16.2-41.9,18.6-61.3,18.6c-26.8,0-51.3-4.3-58-7.2c-13.2-5.8-22.4-22.1-22.5-22.2l-0.1-0.2l-0.2-0.1
				c-7.2-4.5-11.2-13.9-15-23.1c-0.6-1.5-1.2-2.9-1.9-4.4l-9.5-44.7c5.7-2.5,43.2-18.7,71.1-21.1
				C581.5,387.1,587.8,386.9,595.2,386.9 M595.2,385.9c-7.1,0-13.5,0.2-18.7,0.6c-30.6,2.5-72.1,21.5-72.1,21.5l9.7,45.6
				c4.7,10.8,8.7,22.6,17.3,28c0,0,9.3,16.6,23,22.7c7.4,3.3,32.7,7.3,58.4,7.3c27.2,0,54.8-4.5,62.2-19.1
				C689.3,463.7,686,417,686,417s3.7-16.4,0.6-22.1C680.2,390.5,629.7,385.9,595.2,385.9L595.2,385.9z"/>
		</g>
	</g>
	<g>
		<path class="st2" d="M450.8,486c5.3-20.1,10.1-42.8,6.2-60.4c-0.4-1.2-3.9-11.2-7.4-12.3c-23.1-7.3-46-11-68.1-11
			c-31.9,0-55.3,7.5-69.3,13.9l-0.1,0l-0.1,0c-0.2,0.2-4.8,4-3.9,8.3l2.1,10.4h-2c-0.2-1.3-0.9-5.1-2.3-7c-0.8-1-2.1-1.6-4-1.6
			c-0.7,0-1.4,0.1-1.8,0.2l-2.3-11.5c28.8-10.4,58.7-15.7,88.9-15.7c21.5,0,43.8,2.7,66.3,7.9l27.5,2.5l21.9-4.3l0.1,0
			c24.5-13.3,63.3-20.3,112.3-20.3c26.4,0,54.7,2.1,84.1,6.1v14.7c-0.7-0.1-2-0.2-3.3-0.2c-1.9,0-3.3,0.3-4.1,0.8
			c-2.1,1.4-2.6,4.7-2.6,4.8l0.3,5.1l-2.7-0.2c0-2,0-9.3-2-13.5c-2.2-4.9-11.6-8.7-12-8.8l-0.1,0l-0.1,0
			c-23.5-3.2-42.9-4.7-60.9-4.7c-36,0-67.3,6-98.6,19l-0.2,0.1L509,419l0,0.1c2.7,25.2,9.8,45.6,21.7,62.5l-1.8,2.8
			c-11.3-14.9-20.1-34.7-26.3-58.7c0-0.1-0.7-2-4-3.6c-1.2-0.6-3.9-0.9-8.3-0.9c-4.8,0-9.9,0.4-10.1,0.4c0,0-0.5,0-1.2,0
			c-3.7,0-10.2,0.3-12.4,2.1c-2.8,2.3-4,5.6-4,5.7l0,0.1l0,0.1c0.3,16.2-4.3,38-8.9,57.3L450.8,486z"/>
		<path d="M614.9,385.9c26.3,0,54.4,2,83.6,6.1v13.7c-0.7-0.1-1.8-0.2-2.8-0.2c-2.1,0-3.5,0.3-4.4,0.9c-2.3,1.6-2.8,5-2.8,5.2l0,0.1
			l0,0.1l0.2,4.5l-1.6-0.1c0-2.5-0.2-9.2-2-13.3c-2.3-5.1-11.8-8.9-12.2-9.1l-0.1,0l-0.1,0c-23.5-3.2-42.9-4.7-61-4.7
			c-36.1,0-67.5,6-98.8,19l-0.4,0.2l-0.1,0.4l-3.6,10.1l-0.1,0.2l0,0.2c2.7,25.1,9.8,45.5,21.6,62.4l-1.2,1.9
			c-11-14.8-19.7-34.3-25.8-57.9l0,0l0,0c-0.1-0.2-0.8-2.2-4.3-3.8c-1.3-0.6-4.1-0.9-8.5-0.9c-4.6,0-9.5,0.3-10.1,0.4
			c-0.1,0-0.6,0-1.2,0c-3.8,0-10.4,0.3-12.7,2.2c-2.9,2.4-4.1,5.8-4.2,5.9l-0.1,0.2l0,0.2c0.3,16-4.2,37.5-8.8,56.6l-1.9-0.6
			c5.2-20,9.9-42.6,6.1-60.1l0-0.1l0-0.1c-0.7-1.9-4.1-11.4-7.7-12.6c-23.2-7.3-46.1-11-68.2-11c-32,0-55.4,7.6-69.5,13.9l-0.1,0.1
			l-0.1,0.1c-0.2,0.2-5,4.2-4,8.8l2,9.8h-1c-0.3-1.6-1-5-2.4-6.8c-0.9-1.1-2.4-1.8-4.4-1.8c-0.5,0-1,0-1.4,0.1l-2.2-10.6
			c28.6-10.3,58.3-15.5,88.3-15.5c21.5,0,43.7,2.7,66.2,7.9l0.1,0l0.1,0l27.4,2.5l0.1,0l0.1,0l21.8-4.2l0.2,0l0.1-0.1
			C527.2,392.9,566,385.9,614.9,385.9 M614.9,384.9c-47.7,0-87.6,6.8-112.6,20.4l-21.8,4.2l-27.4-2.5c-23.1-5.4-45.2-7.9-66.4-7.9
			c-31.6,0-61.3,5.6-89.5,15.9l2.5,12.4c0,0,1-0.3,2.2-0.3c1.3,0,2.7,0.3,3.6,1.4c1.6,2.1,2.3,7.2,2.3,7.2h3.1c0,0-1.4-6.9-2.2-11
			c-0.8-4.1,3.7-7.9,3.7-7.9c15-6.7,38.5-13.8,69.1-13.8c19.8,0,42.6,3,67.9,10.9c3.3,1,7,11.9,7,11.9c3.7,16.6-0.3,38-6.3,60.6
			l3.9,1.2c5.2-21.6,9.3-42.2,9-57.9c0,0,1.1-3.3,3.9-5.5c2.1-1.8,9.2-1.9,12.1-1.9c0.8,0,1.2,0,1.2,0s5.1-0.4,10-0.4
			c3.5,0,6.8,0.2,8.1,0.8c3.2,1.5,3.8,3.3,3.8,3.3c6.6,25.4,15.7,44.8,26.8,59.4l2.4-3.7c-12.7-17.8-19.4-39-21.9-62.5l3.6-10.1
			c33.5-13.9,65.4-19,98.4-19c19.7,0,39.8,1.8,60.8,4.7c0,0,9.5,3.8,11.7,8.6c2.2,4.8,1.9,13.8,1.9,13.8l3.7,0.3l-0.3-5.6
			c0,0,0.4-3.1,2.4-4.4c0.8-0.6,2.4-0.7,3.9-0.7c2,0,3.8,0.3,3.8,0.3v-15.7C669.8,386.9,641.2,384.9,614.9,384.9L614.9,384.9z"/>
	</g>
	<g>
		<polygon class="st2" points="700,391.4 762.1,371.4 764,381.1 751,383.4 745.9,388.2 700,406 		"/>
		<path d="M761.7,372l1.7,8.7l-12.3,2.2l-0.3,0.1l-0.2,0.2l-4.9,4.6l-45.1,17.6v-13.5L761.7,372 M762.5,370.7l-63,20.3v15.7
			l46.7-18.2l5-4.7l13.3-2.3L762.5,370.7L762.5,370.7z"/>
	</g>
	<g>
		<path class="st2" d="M531.1,474.7c-1,0-1.8-0.2-2.2-0.3c-6.6-10.1-11.2-20.7-13.8-32.5c0.4-0.3,1.3-1,2.9-1c0.7,0,1.5,0.1,2.3,0.4
			c3.6,1.3,14.9,22.3,14.8,29.1C535,473.2,533.6,474.7,531.1,474.7z"/>
		<path d="M517.9,441.3L517.9,441.3c0.7,0,1.4,0.1,2.1,0.4c3.4,1.2,14.6,22.1,14.4,28.6c-0.1,2.6-1.2,3.9-3.5,3.9
			c-0.8,0-1.5-0.2-1.9-0.3c-6.5-9.9-10.9-20.4-13.6-31.9C516,441.7,516.8,441.3,517.9,441.3 M517.9,440.3c-2.3,0-3.5,1.4-3.5,1.4
			c2.4,10.8,6.7,21.8,14.1,33.1c0,0,1.1,0.4,2.5,0.4c2,0,4.4-0.8,4.5-4.8c0.1-6.8-11.1-28.1-15.1-29.6
			C519.5,440.4,518.7,440.3,517.9,440.3L517.9,440.3z"/>
	</g>
</g>
<g id="Warstwa_4">
	<g>
		<path class="st2" d="M750,372.5c-1.5-6.5-6.9-27.2-18.8-40.2c-3.3-3.6-6.3-6.7-9-9.4c-9-9.2-15-15.3-18.8-28.1
			c-4.6-15.6-24.8-111.2-27.6-124.4l47.8,42.9c-0.9,2.9-7.7,25.9-4.8,41.7c3.1,16.6,18.1,64.7,26.7,87.2
			C751.7,358.5,750.8,368.5,750,372.5z"/>
		<path d="M676.5,171.6l46.4,41.7c-1.2,4-7.6,26-4.7,41.6c3.1,16.6,18.1,64.8,26.7,87.3c5.2,13.5,5.4,22.6,4.9,27.6
			c-2.1-8.3-7.5-26.1-18.3-37.9c-3.3-3.6-6.4-6.7-9-9.5c-9-9.1-14.9-15.2-18.7-27.9C699.4,279.4,680.3,189.3,676.5,171.6
			 M674.9,168.9c0,0,23,109,27.9,125.9s13.7,22.2,27.9,37.8c14.2,15.6,19.1,42,19.1,42s4.4-10.5-4-32.7
			c-8.4-22.1-23.6-70.2-26.7-87.1c-3.1-16.9,4.9-41.8,4.9-41.8L674.9,168.9L674.9,168.9z"/>
	</g>
	<g>
		<polygon class="st2" points="777.7,401.9 761.9,389.6 744.2,319.8 710.6,194 675,168.3 565.5,192.1 460.2,223.1 438.9,207.1 
			373.9,233.2 341.4,373 345.6,401.8 335.3,403.6 308,351.7 297.8,328.2 318.1,212.9 396.4,102.3 504.4,51.4 617.9,51.4 
			722.6,111.8 803.7,205.2 822.6,285.1 822.6,374.4 802.7,415.3 		"/>
		<path d="M617.8,51.9l104.5,60.2l80.9,93.3l18.9,79.6v89.2l-19.6,40.3L778,401.5l-15.7-12.2l-17.7-69.6l-33.5-125.6l-0.1-0.3
			l-0.3-0.2L675.5,168l-0.4-0.3l-0.4,0.1l-109.3,23.7l0,0l0,0l-105,31l-20.9-15.7l-0.5-0.3l-0.5,0.2l-64.5,25.9l-0.5,0.2l-0.1,0.5
			l-32.4,139.4l0,0.2l0,0.2l4.1,28.2l-9.4,1.7l-27.1-51.5l-10.1-23.4l20.2-115l78.2-110.4l107.8-50.8H617.8 M618,50.9H504.3
			l-108.2,51l-78.5,110.8l-20.3,115.6l10.2,23.7l27.5,52.2l11.1-2l-4.2-29.2l32.4-139.4l64.5-25.9l21.3,16l105.5-31.1l109.3-23.7
			l35.3,25.5L743.7,320l17.8,69.9l16,12.4l25.5,13.7l20.1-41.4V285l-19-80l-81.2-93.6L618,50.9L618,50.9z"/>
	</g>
	<g>
		<polygon class="st2" points="362.6,148.8 351.8,148.8 436.3,108.9 460.3,97.9 554.2,78.1 635.9,145.2 578,189.3 		"/>
		<path d="M554.1,78.7l81,66.5l-57.1,43.5l-215.2-40.5l-0.1,0h-0.1H354l82.5-39l23.9-10.9L554.1,78.7 M554.3,77.6l-94.2,19.9l-24,11
			l-86.5,40.9h12.9l215.6,40.5l58.5-44.6L554.3,77.6L554.3,77.6z"/>
	</g>
	<g>
		<path class="st2" d="M316,314.1c-3.6-46.3,2.6-86.8,18.7-123.7l0.5-1.1l-1.2,0.5c-9.1,3.8-23.5,28.6-29.2,39
			c2.4-7.2,7.6-21.2,16.3-35.8c11.4-19.1,31.1-43,60.6-48.5c4.8-0.9,10.3-1.3,16.5-1.3c59.4,0,165.3,41.4,178.5,46.6L484.4,216
			c-3.3-1.4-54.1-23.3-92.8-23.3c-7.4,0-14,0.8-19.7,2.4c-16.6,4.7-31.2,26.9-43.4,65.9C321.6,283.4,317.5,305.3,316,314.1z"/>
		<path d="M398.1,142.6l0,1c57.6,0,159,39,176.9,46l-90.6,25.8c-4.6-2-54.6-23.3-92.8-23.3c-7.5,0-14.1,0.8-19.8,2.4
			c-16.8,4.8-31.5,27-43.7,66.2c-6.1,19.6-10,38.8-11.9,49.2c-1.3-20.3-0.7-39.7,1.8-58c3-21.6,8.7-42.3,17.1-61.4l1-2.3l-2.3,1
			c-8,3.4-19.9,22.4-26.7,34.2c2.8-7.7,7.5-18.8,14.3-30.3c7.2-12.1,15.4-22.2,24.2-30c11-9.7,23.2-15.9,36.1-18.3
			c4.7-0.9,10.2-1.3,16.4-1.3V142.6 M398.1,142.6c-6,0-11.6,0.4-16.5,1.3c-57.5,10.7-78.8,89.5-78.8,89.5s20.1-38.5,31.4-43.3
			c-17.2,39.4-22.4,82.4-18.4,128c0,0,16.6-111.4,56.3-122.7c5.9-1.7,12.5-2.4,19.5-2.4c40.1,0,92.8,23.4,92.8,23.4l93.8-26.7
			C578.2,189.8,462,142.6,398.1,142.6L398.1,142.6z"/>
	</g>
	<g>
		<path class="st2" d="M336.2,261.7c8.9-11.5,43.5-53.8,73.3-57.4c2.7-0.3,5.3-0.5,7.9-0.5c24.5,0,37.9,14.5,41.4,18.9l-32.6-10.5
			l-52.2,21L336.2,261.7z"/>
		<path d="M417.4,203.3l0,1c22.2,0,35.2,12,39.9,17.4l-30.8-9.9l-0.3-0.1l-0.3,0.1l-51.9,20.9l-0.1,0l-0.1,0.1L338.9,259
			c11.6-14.5,43.2-50.9,70.6-54.2c2.7-0.3,5.3-0.5,7.9-0.5V203.3 M417.4,203.3c-2.5,0-5.2,0.2-8,0.5c-35,4.1-75.9,60.4-75.9,60.4
			l40.7-30.7l51.9-20.9l33.9,11C460.1,223.7,446.8,203.3,417.4,203.3L417.4,203.3z"/>
	</g>
	<g>
		<path class="st2" d="M579,189.1c3.4-7.5,25.2-58.1-0.6-74.6c-16.6-10.7-49.7-17.9-82.3-17.9c-14.7,0-34.9,1.5-52.4,7.9
			c19.5-10.8,74.2-38.2,124.4-38.2c11.1,0,21.5,1.3,30.8,4c63,17.9,92.6,36.2,93.2,57.5c0.6,18.5-16.1,38.7-17.6,40.5L579,189.1z"/>
		<path d="M568.2,65.9v1c11,0,21.4,1.3,30.7,4c62.7,17.9,92.2,36,92.9,57c0.5,17.9-15.3,37.6-17.3,40.1l-94.5,20.5
			c2-4.4,6.9-16.2,9.6-29.2c4.6-22,0.9-37.7-10.8-45.2c-16.7-10.7-49.9-18-82.6-18c-13.2,0-30.9,1.2-47.1,6.1
			c7.4-3.9,17.7-9.1,29.8-14.2c22.9-9.7,56.9-21.2,89.3-21.2L568.2,65.9 M568.2,65.9c-63,0-132.1,42.5-132.1,42.5
			c16.1-7.9,37.9-11.3,60-11.3c32.5,0,65.6,7.2,82,17.8c27.7,17.8,0,74.9,0,74.9l96.8-21c0,0,18.4-21.3,17.8-41
			c-0.6-19.7-24.9-38.4-93.6-58C589.2,67.1,578.8,65.9,568.2,65.9L568.2,65.9z"/>
	</g>
	<g>
		<path class="st2" d="M710.6,203.1l-27-27.3l26.3,19c0.4,0.3,43.5,34.7,54.6,70.9c10.1,32.9-1,107.9-3.2,121.9L710.6,203.1z"/>
		<path d="M688.2,179.7l21.4,15.4c0.4,0.3,43.4,34.6,54.5,70.6c9.6,31.3,0,100.9-2.9,119.4l-50-182.1l-0.1-0.3l-0.2-0.2L688.2,179.7
			 M679,171.8l31.2,31.5l51.3,186.6c0,0,14.8-87.7,3.6-124.4s-54.8-71.1-54.8-71.1L679,171.8L679,171.8z"/>
	</g>
	<g>
		<polygon class="st2" points="466.5,798.3 409.8,769.7 378.8,715.5 347.9,586.2 338.4,503.6 341.4,508.1 345.9,524.2 358.3,563.4 
			393.7,612.8 416.9,653.2 438.4,692.9 493.3,716.2 519.3,717.5 599.6,704.1 605.9,653.3 625.7,641.8 706.2,563.6 758,506.1 
			751.7,384.3 758.8,382.2 761,390.2 768.7,396.2 776.9,514.4 788.9,590.3 777,627.7 749.5,680.5 689.5,750 649.6,792.5 
			554.3,803.6 		"/>
		<path d="M758.5,382.8l2,7.4l0.1,0.3l0.3,0.2l7.4,5.8l8.2,117.9l0,0l0,0l12,75.8l-11.9,37.2l-27.5,52.8l-59.9,69.4L649.4,792
			l-95.1,11.1l-87.7-5.3l-56.4-28.5l-30.9-54l-30.8-129.1l-9.3-80.6l1.8,2.7l4.4,16.1l12.4,39.1l0,0.2l0.1,0.1l35.3,49.3l23.2,40.4
			l21.4,39.6l0.2,0.3l0.3,0.1l54.7,23.1l0.2,0.1l0.2,0l25.8,1.3l0.1,0l0.1,0l79.9-13.3l0.7-0.1l0.1-0.7l6.2-50.2l19.6-11.3l0.1-0.1
			l0.1-0.1l80.4-78.2l0,0l0,0l51.6-57.3l0.3-0.3l0-0.4l-6.2-121.2L758.5,382.8 M759.2,381.5l-7.9,2.3l6.2,122l-51.6,57.3l-80.4,78.2
			l-20,11.6l-6.3,50.7L519.2,717l-25.8-1.3l-54.7-23.1L417.3,653l-23.2-40.4l-35.3-49.3l-12.4-39.1l-4.4-16.2l-4.2-6.2l9.8,84.7
			l30.9,129.3l31.1,54.4l56.9,28.7l88,5.3l95.6-11.1l40-42.7l60-69.6l27.6-53l12-37.5l-12-76l-8.2-118.4l-7.8-6.1L759.2,381.5
			L759.2,381.5z"/>
	</g>
	<g>
		<path class="st2" d="M727.6,347c-7.1-1.5-24.7-6.8-38.7-22.8c-13-14.9-10.9-29.7-7.7-52c1.2-8.8,2.6-18.7,3.4-30.3
			c2.2-33.3-5.2-60.7-8.1-69.9c5.4,7.8,20.1,29.6,25.9,42.1c4.6,9.9-0.4,35.3-4.8,57.7c-2.5,12.6-4.8,24.6-5.4,33.1
			C690.8,325.4,718.3,342,727.6,347z"/>
		<path d="M677.9,174.9c6.3,9.3,18.8,28.1,24,39.4c4.5,9.7-0.5,35.1-4.8,57.4c-2.5,12.7-4.8,24.6-5.4,33.2
			c-0.7,10.2,5.8,21,18.8,31.4c4.9,3.9,10,7.1,13.7,9.3c-8.3-2.3-23-8.1-34.9-21.8c-12.8-14.7-10.7-29.4-7.6-51.6
			c1.2-8.8,2.7-18.7,3.4-30.3C687.1,211.7,681.2,186.3,677.9,174.9 M674.9,168.9c0,0,11.9,31.7,9.2,73c-2.7,41.3-13.8,61.8,4.4,82.7
			c18.2,20.9,42.2,23.6,42.2,23.6S691.1,329,692.7,305c1.6-24,17.3-75.6,10.1-91.1C695.7,198.3,674.9,168.9,674.9,168.9L674.9,168.9
			z"/>
	</g>
	<g>
		<polygon class="st2" points="619.4,363.3 569.7,367.5 531.3,365.1 529.1,347 559.7,337.7 618,343.9 678.8,354.5 708.5,371.4 
			664.9,374.1 		"/>
		<path d="M559.8,338.2l58.1,6.2l60.8,10.6l28.1,16l-41.8,2.5l-45.3-10.7l-0.2,0l-0.2,0l-49.6,4.1l-38-2.3l-2.1-17.3L559.8,338.2
			 M559.7,337.1l-31.1,9.5l2.3,19l38.9,2.4l49.6-4.1l45.5,10.7l45.3-2.7L679,354l-61-10.7L559.7,337.1L559.7,337.1z"/>
	</g>
	<g>
		<polygon class="st2" points="342.4,373 346.4,356.2 387,342.4 433.5,342.4 449.6,367.4 439.3,371.5 403.9,368.1 377.6,362.1 
			349.4,380.8 343.8,383 		"/>
		<path d="M433.2,342.9l15.6,24.3l-9.6,3.8l-35.3-3.4l-26-5.9l-0.4-0.1l-0.4,0.2l-28.1,18.6l-4.9,1.9l-1.3-9.2l3.9-16.4l40.3-13.7
			H433.2 M433.7,341.9h-46.8l-40.9,14l-4.1,17.1l1.5,10.7l6.2-2.4l28.1-18.7l26.1,5.9l35.6,3.4l11-4.3L433.7,341.9L433.7,341.9z"/>
	</g>
	<g>
		<polygon class="st2" points="611.4,659.5 582.5,623.9 548.8,608.4 521,598.4 515.4,578.2 513.8,572.6 520.6,572.6 554.2,575.6 
			595.2,589.4 617.5,621.4 614.7,666.5 		"/>
		<path d="M520.5,573.1l33.6,2.9l40.7,13.8l22.1,31.7l-2.7,43l-2.5-5.2l-0.1-0.1l-0.1-0.1L583,623.6l-0.1-0.2l-0.2-0.1L549,607.9
			l0,0l0,0l-27.5-9.9l-5.5-20l-1.4-4.9H520.5 M520.6,572.1h-7.4l1.8,6.2l5.6,20.4l28,10.1l33.6,15.4l28.7,35.6l4.1,8.6l3-47.1
			L595.5,589l-41.2-13.9L520.6,572.1L520.6,572.1z"/>
	</g>
	<g>
		<polygon class="st2" points="410,618.4 424,595.9 454.7,576.1 483.8,572.7 476.9,600.8 446.4,614.4 432.4,634.9 421.4,651.9 		"/>
		<path d="M483.1,573.3l-6.7,27.2l-30.1,13.4l-0.3,0.1l-0.2,0.2L432,634.7l-10.4,16.1l-11-32.3l13.9-22.2l30.4-19.6L483.1,573.3
			 M484.4,572.1l-29.9,3.6l-30.8,19.9l-14.2,22.8l11.9,34.7l11.6-17.8l13.9-20.4l30.5-13.6L484.4,572.1L484.4,572.1z"/>
	</g>
	<g>
		<polygon class="st2" points="504.5,696.5 493.9,687.4 493.9,668.9 530.4,665.1 530.4,680.4 516.3,696.5 		"/>
		<path d="M529.9,665.7v14.5L516.1,696h-11.4l-10.3-8.8v-17.9L529.9,665.7 M530.9,664.6l-37.4,3.9v19.3l10.9,9.3h12.2l14.3-16.4
			V664.6L530.9,664.6z"/>
	</g>
</g>
<g id="Warstwa_2" class="st3">
	
		<image style="display:inline;overflow:visible;opacity:0.4;" width="2916" height="4082" xlink:href="cv-zdj2.jpg"  transform="matrix(0.2604 0 0 0.2604 160.3922 8.6011)">
	</image>
</g>
<g id="Warstwa_5" class="st3">
	
		<image style="display:inline;overflow:visible;" width="2916" height="4082" xlink:href="cv-zdj2.jpg"  transform="matrix(0.2604 0 0 0.2604 -772.9412 8.6011)">
	</image>
</g>
</svg>
