<?xml version="1.0" encoding="UTF-8"?>
<svg id="Warstwa_2" data-name="Warstwa 2" xmlns="http://www.w3.org/2000/svg" viewBox="0 0 1030.6 1038.11">
  <defs>
    <style>
      .cls-1 {
        fill: #E0712C;
        stroke-width: 0px;
      }
    </style>
  </defs>
  <g id="Warstwa_1-2" data-name="Warstwa 1">
    <g>
      <path class="cls-1" d="M1006.2,517.68c1.29,1.65,4.24.7,3.59-3.79l-5.01-3.13,1.41,6.92Z"/>
      <path class="cls-1" d="M1014.44,487.09c-1.37-2.6-3.21-5.35-5.24-6.96-2.05-1.61-4.32-2.09-6.44-.22,5.1,4.84,3.18,6.22,9.21,11.55.78,4.51-1.28,7.96-3.13,7.26,1.33,1.55-.8,7,2.3,9.36,1.92-2.97,2.76-6.36,2.75-9.95,0-1.8-.24-3.64-.68-5.52-.46-1.87-1.19-3.77-2.1-5.66.98-1.74,2.38-.2,3.32.13Z"/>
      <path class="cls-1" d="M810.12,104.6l2.01,2.19c-.45-.73-1.15-1.47-2.01-2.19Z"/>
      <path class="cls-1" d="M549.98,9.15c2.15.01,3.07-.42,3.21-.86-2.01.2-3.66.4-3.21.86Z"/>
      <path class="cls-1" d="M501.82,2.74c1.04.1,1.92.18,2.87.27-1.1-.45-2.21-.68-2.87-.27Z"/>
      <path class="cls-1" d="M810.12,104.6l-5.25-5.55c-1.35,1.04,2.48,3.16,5.25,5.55Z"/>
      <path class="cls-1" d="M995.24,428.42c.51,1.44,1.23,2.58,2,3.61-.4-1.19-.84-2.33-1.19-3.52-.28-.02-.52-.03-.81-.09Z"/>
      <path class="cls-1" d="M904.02,185.01l1.49,1.74c.86.15,1.8.19,2.77.15l-4.26-1.9Z"/>
      <path class="cls-1" d="M959.79,262.39c-.94-1.96-4.97-.48-6.97-.25,2.11.16,3.64,1.11,4.87,2.58.71-.37,1.41-1.09,2.1-2.33Z"/>
      <path class="cls-1" d="M1007.78,404.63l1.13,2.46c-.33-.63-.74-1.73-1.13-2.46Z"/>
      <path class="cls-1" d="M856.82,135.62c.3-.57.41-1.21.35-1.71-.35.4-.43,1-.35,1.71Z"/>
      <path class="cls-1" d="M985.24,620.88c.28.13.49.08.73.15-.3-.6-.56-.82-.73-.15Z"/>
      <path class="cls-1" d="M1017.27,517.68l.21,1.5c.8.16,1.58.33,2.36.33l-2.57-1.84Z"/>
      <path class="cls-1" d="M412.56,7.46c.18.01.24,0,.41,0,2.23-.92.93-.58-.41,0Z"/>
      <path class="cls-1" d="M10.39,627.18c.86-4.93,2.84-1.48,4.75,1.34,1.91,2.83,3.73,5.01,4.31-2.15-.67.8-2.94-1.9-5.04-3.38-2.1-1.47-4.04-1.72-4.01,4.19Z"/>
      <path class="cls-1" d="M995.34,426c-.28-1.2-.55-2.42-.74-3.66.18,1.7.42,2.82.74,3.66Z"/>
      <path class="cls-1" d="M19.45,626.37h.04s.09-1.48.09-1.48c-.05.61-.08.96-.12,1.48Z"/>
      <path class="cls-1" d="M224.58,89.5c.76.37,1.76.37,2.76.33-.3-.32-.98-.49-2.76-.33Z"/>
      <path class="cls-1" d="M363.97,28.67l-3.74.62c1.53-.09,2.72-.34,3.74-.62Z"/>
      <path class="cls-1" d="M166.56,143.6c-1.71,1.16-2.63,1.2-4.27,3.52.33-.02.62-.1.97-.21.34-1.11,1.14-2.22,3.3-3.31Z"/>
      <path class="cls-1" d="M111.42,204.08c.52-.15,1.06-.45,1.59-.68.43-.69.95-1.49,1.42-2.18-1.03.93-2,1.91-3.01,2.86Z"/>
      <path class="cls-1" d="M884.13,829.36c2-.52,3.68-.49,5.21-.29-3.06-1.02,3.43-10.36-5.21.29Z"/>
      <path class="cls-1" d="M997.56,427.94c-1.13-.26-1.78-.81-2.22-1.95.22.87.46,1.7.71,2.51.66.11,1.25.05,1.51-.56Z"/>
      <path class="cls-1" d="M186.99,170.02c-3.1,2.63-6.11,5.36-9.18,8.04,2.74-2.08,6.02-5.06,9.18-8.04Z"/>
      <path class="cls-1" d="M382.69,981.82c.94.11,1.89.21,2.85.28-1.02-.37-2.01-.53-2.85-.28Z"/>
      <path class="cls-1" d="M153.63,204.94c-2.53.69-4.68,1.9-6.66,3.36-.08.6-.24,1.21-.08,1.78l6.74-5.15Z"/>
      <path class="cls-1" d="M889.39,829.08s-.05,0-.05,0c0,0,.02.02.05,0Z"/>
      <path class="cls-1" d="M927.49,757.49c-5.97,9.87,1.89,7.46,3.36,11.24-6.08,12.73-6.89,3.34-11.78,5.83-1.72,4.01-2.48,8.09-3.25,11.87-.82,3.74-1.73,7.14-3.67,9.77-1.02-.12-2.01.72-2.1-1.16-.38,2.54-1.67,5.15-3.27,7.91-.81,1.37-1.71,2.77-2.66,4.19-.98,1.4-2.02,2.81-3.05,4.24-2.07,2.86-4.12,5.79-5.9,8.67-1.77,2.9-3.11,5.88-3.8,8.83-.9.3-1.52.31-1.97.2,3.26.44,5.62,2.02,6.92,3.59-3.39,4.13-3.75,9.91-7.84,9.04,2.25-2.4,1.29-3.59,1.43-5.48-.81,1.76-1.6,3.54-2.46,5.27-3.63.17-2.7-1.56-1.24-3.63,1.42-2.11,3.37-4.59,1.9-5.84-2.8,4.71-5.61,10.05-8.49,14.97-1.47,2.43-3,4.71-4.56,6.73-1.56,2.01-3.18,3.75-4.92,4.97-4.77-2.2,12.04-15.37,1.19-10.36l5.07-4.03,4.98-4.14c-12.48,1.95,5.54-5.4-6.81-4.43-1.52,1.43-2.81,2.74-3.95,3.97-1.17,1.2-2.16,2.32-3.06,3.39-1.78,2.13-3.11,4.06-4.48,5.97-1.39,1.88-2.78,3.77-4.61,5.86-1.81,2.12-4.15,4.36-7.39,6.99-.71,4.65,3.81,2.13,3.08,6.8-3.42,5.08-6.66,7.76-9.53,9.3-2.92,1.5-5.58,1.75-8.02,1.93-2.45.16-4.68.25-6.87,1.29-2.21,1.02-4.33,3.02-6.56,7.13-.63,2.76-.32,5.62-1.31,8.49-.99,2.86-3.3,5.76-9.35,8.19l-.15-7.14c-6.58,4.69-7.16,7.76-8.15,10.49-.49,1.38-1.06,2.69-2.51,4.1-.73.7-1.68,1.43-2.95,2.19-1.27.76-2.9,1.51-4.93,2.34,1.24-3.52,9.28-9,6.9-8.1-2.89.7-4.59,1.51-5.66,2.37-1.08.86-1.49,1.82-1.76,2.85-.54,2.06-.51,4.42-4.01,6.85l-4.31-3.24c-6.94,5.09-13.93,10.95-21.38,16.66-1.87,1.43-3.74,2.87-5.63,4.31-1.92,1.4-3.86,2.78-5.82,4.16-3.9,2.8-7.99,5.34-12.14,7.81.25-1.85,2.4-4.79-2.27-4.08-10.11,6.64-21.87,12.03-33.93,16.22-12.08,4.16-24.45,7.08-35.84,9.32l-7.05,6.92c-1.98.59-4.25-.8-2.36-2.24-9.12.97.37,2.8-3.3,5.7-4.88,1.77-7.23-.49-4.48-2.69-.89.51-1.83,1.04-2.81,1.57-1,.5-2.04,1.03-3.11,1.57-2.16,1.07-4.49,2.17-6.93,3.27-2.45,1.08-5.04,2.09-7.69,3.11-1.33.51-2.67,1-4.03,1.49-1.36.47-2.75.89-4.13,1.32-11.05,3.53-22.67,5.36-31.36,4.39l3.04-1.83c-1.65.04-3.09.27-4.39.58-1.29.3-2.43.72-3.47,1.22-2.07.99-3.74,2.29-5.4,3.52-1.65,1.24-3.31,2.35-5.34,2.99-2.03.64-4.45.82-7.61.15l2.26-1.04c-14.36.61-29.37,2.1-43.63,2.34-14.24.3-27.69-.85-38.34-4.76-2.24,3.02-9.29,1.95-16,.88-1.68-.25-3.34-.47-4.91-.61-1.57-.16-3.04-.25-4.35-.15-2.62.19-4.59,1.05-5.32,3.2-3.96-1.52-6.57-2.89-8.66-3.98-2.09-1.11-3.63-2.03-5.38-2.94-1.75-.92-3.69-1.89-6.58-3-1.44-.56-3.12-1.16-5.12-1.83-1.99-.7-4.3-1.51-7.02-2.4-5.87-1.49-9.98,3.59-17.64,2.89l.85-4.54-11.12,2.28c-1.33-2.2-2.63-4.48-3.9-6.73l-7.13-.7c2.64,1,5.24,3.57,4.48,4.74-2.81-.24-5.84-.93-8.71-2.05-2.88-1.11-5.65-2.5-8.04-3.92-4.77-2.92-7.99-6.03-7.75-7.18l-3.25-.54-3.23-.61-6.48-1.25c-4.33-.83-8.61-1.85-12.94-2.77,1.22-1.52,5.55-.57,9.18-.45-7.33-.27-7.51-1.63-7.49-2.98,0-1.35.18-2.67-6.51-3.08,1.18,1.62-1.9,2.2-2.52,2.95-1.21-1.27-2.97-2.49-5.04-3.83-2.07-1.32-4.49-2.63-7.08-3.87-2.61-1.21-5.31-2.54-8.06-3.66-1.37-.57-2.74-1.12-4.08-1.63-1.34-.51-2.64-1.04-3.91-1.5l3.23-1.95c-4.21-2.34-8.67-4.47-13.15-6.78-2.26-1.11-4.55-2.24-6.85-3.38-2.3-1.16-4.61-2.33-6.94-3.51-2.35-1.15-4.67-2.39-7.01-3.64-2.33-1.26-4.71-2.47-7.03-3.8-4.64-2.67-9.32-5.37-13.81-8.41,5.67,5.52,1.24,9.21-4.46,6.09l.55-5.48c-5.14.23,4.59,5.23-4.59,3.61-6.48-5.12-1.38-7.69,3.32-6.37l-9.08-4.23c.37-1.52,2.71-.83,4.27-2.02-1.26.05-2.59-.78-3.99-2.04-1.37-1.29-2.81-3.02-4.33-4.71-3.07-3.35-6.33-6.73-10.24-6.41l.45-1.49c-1.07-.82-2.11-1.6-3.11-2.37-.99-.78-1.95-1.53-2.88-2.26-1.87-1.45-3.64-2.79-5.33-4.06-3.36-2.56-6.37-4.88-9.33-7.07-2.92-2.23-5.71-4.44-8.64-6.77-2.91-2.35-5.84-4.95-9.12-7.89-3.19,2.85-7.46-2.69-13.68-3.98-8.34-10.28-15.75-23.11-26.05-34.89-2.19-1.76-3.56-2.68-4.49-3.09-.93-.4-1.42-.28-1.8,0-.76.56-1.08,1.75-3.63.59,1.24-1.54-.71-5.29-1.99-8.12-1.26-2.85-1.92-4.71,1.64-2.33-2.96-3.65-5.48-6.59-7.64-9.35-2.18-2.75-4.21-5.19-6.34-7.75-2.1-2.59-4.35-5.26-7.1-8.41-1.34-1.6-2.8-3.32-4.39-5.23-1.61-1.9-3.41-3.96-5.3-6.31.03,3.06,1.08,5.9-.86,5.33-2.89-3.37-3.92-9.31-2.02-9.73l.94.77c-9.57-9.94-14.87-25.02-19.19-39.33-2.21-7.15-4.15-14.17-6.55-20.39-1.16-3.13-2.46-6.05-3.97-8.7-1.44-2.69-3.08-5.1-5.02-7.19l.82.96c-2.07-3.13-4.01-6.32-5.97-9.53l-2.94-4.82-2.83-4.89c-2.76-9.84,4.76,4.8,4.49-3.09-.87-1.27-1.68-2.52-2.43-3.75-.73-1.25-1.38-2.48-2-3.69-1.23-2.43-2.27-4.8-3.17-7.12-1.66-4.68-2.86-9.11-3.79-13.46-1.87-8.73-3.22-16.95-7.38-26.1.98-2.16,1.52-4.59,1.73-7.23.27-2.65.22-5.51-.07-8.53-.32-3.01-.75-6.21-1.32-9.5-.58-3.29-1.31-6.69-1.93-10.15-1.39-6.89-2.67-13.99-3.33-20.68-.27-3.35-.39-6.59-.28-9.64.11-3.05.59-5.92,1.31-8.51l-2.59,1.34c-2.95-5.11,1.09-6.46,1.58-10.35-2.05.63-2.18,5.83-3.75,2.62-.6-5.58-1.13-11.23-1.25-16.93-.07-2.85-.2-5.71-.13-8.57.05-2.87.12-5.74.22-8.62.57-11.51,1.75-23.09,3.74-34.58l.71-4.31.83-4.29c.57-2.86,1.09-5.72,1.71-8.56,1.28-5.68,2.52-11.35,4-16.96,1.35-5.63,2.98-11.18,4.44-16.72,1.65-5.51,3.12-11.02,4.82-16.44,2.27-7.97-.36-11.09-2.26-14.65-.94-1.77-1.69-3.65-1.42-6.26.3-2.59,1.59-5.92,4.62-10.54l3.03,7.19c1.95-17,7.84-33.41,14.63-49.21,6.78-15.85,14.51-31.04,20.32-46.81.04,2.29,1.29,3.03-.22,5.88,1.59-1.13,3.2-3.08,4.67-5.4,1.47-2.32,2.74-5.06,3.83-7.66,2.18-5.19,3.23-10.12,2.01-10.93,3.03-4.22,2.9.37,5.86-1.54,1.38-1.2,2.4-2.88,3.24-4.75.83-1.88,1.58-3.89,2.26-5.83,1.38-3.86,2.7-7.31,5.27-7.82.85-.19-.17,2.27-.64,3.49.55-2.37,3.69-6.67,5.92-10.23,2.31-3.51,3.74-6.29.77-5.74,4.42-4.49,7.72-9.45,10.83-14.19,1.6-2.34,3.19-4.58,4.87-6.65.84-1.03,1.71-2.02,2.62-2.93.94-.9,1.91-1.73,2.95-2.48.31-3.97,4.19-7.73,7.64-11.07,1.71-1.68,3.27-3.32,4.22-4.87.96-1.54,1.27-3.05.42-4.55,1.09,1.32,2.83,1.2,4.85.17,1.01-.51,2.1-1.26,3.21-2.16,1.12-.9,2.31-1.94,3.47-3.09,4.61-4.65,9.32-10.75,11.05-14.67-.23,1.67,1.34.83,3,.17,1.65-.67,3.31-1.22,3.16.86,6.41-6.21,11.79-12.51,8.3-14.11,4.42-1.27,8-3.45,11.04-6.11,3.01-2.69,5.64-5.68,8.11-8.55,2.45-2.89,4.89-5.45,7.52-7.21,1.32-.87,2.69-1.53,4.15-1.88,1.47-.34,3.06-.36,4.77,0,2.43-2.31,4.8-4.66,7.25-6.86,2.46-2.2,4.91-4.38,7.33-6.55,2.49-2.09,4.97-4.16,7.42-6.21,2.46-2.07,5-3.96,7.49-5.92,1.26-.96,2.51-1.92,3.75-2.88,1.27-.92,2.54-1.84,3.8-2.76,2.54-1.81,5.04-3.68,7.62-5.38,2.58-1.72,5.14-3.43,7.69-5.13,2.61-1.62,5.2-3.23,7.79-4.83.58,1.6-.58,3.22-2.59,4.84-1,.81-2.22,1.61-3.53,2.42-1.3.82-2.69,1.67-4.07,2.49-2.75,1.67-5.47,3.27-7.16,4.9-1.7,1.62-2.43,3.16-1.31,4.56,2.25-1.77,4.39-3.45,6.44-5.06,2.04-1.63,3.98-3.22,5.86-4.79,3.79-3.06,7.33-6,10.98-8.77,1.84-1.36,3.69-2.69,5.61-3.99.96-.65,1.93-1.29,2.93-1.92,1-.61,2.03-1.21,3.08-1.8,2.1-1.18,4.31-2.32,6.66-3.43,2.35-1.09,4.88-2.06,7.57-3.03,5.77-1.52-1.91,4.04-3.23,5.88,9.84-5.95,20.21-9.89,30.26-13.62,2.53-.9,5.04-1.79,7.53-2.68,2.48-.92,4.95-1.83,7.4-2.73,2.44-.92,4.86-1.89,7.23-2.94,2.39-1.01,4.75-2.06,7.06-3.23.12.62-1.79,1.91-3.63,2.99,3.78-1.36,9.2-1.71,7.93-4.53l-3.53,1.92c-3.7-1.21-.57-4.64,3.65-7.96,4.22-3.27,9.46-6.59,9.53-7.79-4.53,10.17,20.4-2.69,12.32,10.74,2.42-1.22,5.36-3.28,4.31-5.18,3.99-.25,5.44.66,2.06,3.79,3.41-1.17,5.63-2.19,7.23-3.08,1.61-.86,2.6-1.62,3.56-2.32.96-.7,1.9-1.34,3.4-1.96,1.5-.6,3.56-1.25,6.81-1.74.21,1.49-2.31,2.45-3.31,4.45,5.96-3.99,12.15-8.01,23.35-8.24-.54.98.88,1.96-2.39,2.4,9.38-1.51,17.23-4.26,25.47-6.48,1.03-.28,2.06-.57,3.11-.82,1.05-.24,2.1-.47,3.17-.69,2.13-.43,4.31-.81,6.57-1.1,2.25-.32,4.59-.44,7.01-.47,2.43-.02,4.95.07,7.59.32-3.01,3.36-1.2,3.79,1.49,4.16,2.69.39,6.29.66,6.87,3.45,1.86-.29,3.72-.62,5.58-.89l5.6-.76-4.48-2.78c9.82.17,18.72-3.64,27.15-1.3l-3.73.92-3.72,1.01c3.08-.09,6.17-.06,9.25-.04,3.08.04,6.18-.02,9.26.12-1.71-.52-3.42-1-5.15-1.45l-5.17-1.39c5.1-1.12,4.96-2.91,5.17-4.11.11-.6.3-1.06,1.3-1.22.5-.08,1.2-.08,2.18.01.98.12,2.26.33,3.9.68-2.76.34,10.02.89,14.79,4.86,0,0-.03,0-.04.01,2.55-.58,5.16-1.28,8.01-1.38,2.86-.12,5.98.19,9.54,1.39,1.63,2.04-2.44,5.91-1.39,7.26,2.73-1.98,8.51-1.32,14.45-.69,5.92.78,12.03,1.48,15.54-.25-2.25.71-2.95,3.56-2.42,4.29l4.77-2.85c4.25,2.17,4.76,2.88,3.52,5.01,6.62,1.89,5.96-.04,5.56-1.68-.42-1.63-.57-2.88,7.07.56-1.33,0-.87.69-3.62.61,1.95.69,3.92,1.25,5.86,1.82,1.94.58,3.89,1.08,5.83,1.55,3.91.87,7.76,1.73,11.57,2.58,1.91.42,3.82.83,5.7,1.29,1.87.49,3.73,1,5.57,1.55s3.66,1.14,5.45,1.8c1.78.69,3.52,1.47,5.24,2.32,1.17,3.4-2.06,2.63-5.16,1.78-3.11-.83-6.13-1.63-4.47,1.4,10.39,2.95,21.51,5.17,32.37,8.19,5.46,1.41,10.79,3.16,15.99,5.01,2.58.97,5.1,2.04,7.57,3.15,1.23.56,2.45,1.13,3.65,1.73,1.19.61,2.35,1.26,3.5,1.92l-3.26-2.31c3.04-2.94,6.19-.27,9.92,3.26,1.88,1.74,3.83,3.85,6.06,5.52,2.21,1.71,4.69,3,7.46,3.51-2.57-.77-5.11,2.23-4.07,1.78,2.99,2.02,6.14,3.84,9.51,5.53,3.35,1.73,6.88,3.44,10.71,5.13,3.81,1.74,7.84,3.57,12.16,5.55,2.15,1.04,4.37,2.11,6.67,3.23,1.15.57,2.32,1.14,3.52,1.73,1.18.61,2.38,1.25,3.6,1.9l-3.39.14c6.01,6.3,17.74,13.74,24.37,20.17,3.44,0,7.31,3.63,6.67-.72,7.55,13.37,18.57,20.92,29.42,28.62,10.78,7.66,21.39,15.44,26.31,28.03-2.07-2.19-6.19-4.02-4.56-2.27l3.98,3.59c1.32,1.2,2.6,2.45,3.91,3.67,2.59,2.46,5.23,4.89,7.74,7.44,1.53-3.55-.19-3.53-1.18-8.69,3.4.65,8.55,4.33,12.04,8.46-4.05-3.01-5.08-2.08-4.98.13.11,2.21,1.37,5.7,1.9,7.95.38-1.22,2.19-.84,2.81-1.8,1.14,6.33,2.78,5.59,4.97,5.13,2.19-.49,4.9-.65,7.97,6.77l-1.95.45c1.06,1.01,2.19,1.93,3.32,2.85,1.11.93,2.24,1.85,3.34,2.8,2.19,1.92,4.32,3.97,5.91,6.69-.91,2.23-2.14,1.21-3.57-.11-1.43-1.32-3.01-3-4.46-2.18,1.32,1.73,3.04,3.16,4.79,4.55,1.76,1.38,3.65,2.67,5.42,4.02,3.57,2.67,6.51,5.7,7.03,10.11-2.98-2.5-5.92-6.97-8.99-9.36.25,2.44.55,4.26.86,5.73.3,1.48.66,2.59,1.08,3.58.84,1.97,1.94,3.44,3.37,6.3l-.25-.58c1.05,2.23,2,4.52,3,6.77.98,2.27,2.01,4.49,2.93,6.78-.26-1.29-.55-2.57-.85-3.84,3.69.91,6.26,2.58,8.38,4.61,2.1,2.05,3.73,4.46,5.19,7.11,1.48,2.64,2.94,5.42,4.83,8.16,1.83,2.77,4.11,5.49,7.36,7.99-12.45-9.7-4.42-.35-8.97.76.67,3.86,1.88,9.55.03,8.69,3.15,2.24,3.81,5.13,4.74,8.24.89,3.14,2.14,6.45,6.6,9.75-1.15,1,2.81,6.79-1.17,6.84,4.62,7.68,1.5-2.93,3.47-3,2.52,2.66,4.29,6,5.56,9.81,1.31,3.79,2.29,7.98,3.22,12.36.49,2.18,1,4.4,1.61,6.63.56,2.24,1.19,4.49,1.98,6.73,1.63,4.45,3.64,8.89,6.82,13.1,1.02,1.92,1.93,3.66,2.82,5.23.89,1.57,1.76,2.98,2.62,4.27.85,1.3,1.7,2.48,2.51,3.61.81,1.14,1.59,2.22,2.36,3.29,1.56,2.15,3.11,4.28,4.68,6.81,1.52,2.55,3.02,5.51,4.58,9.31-.49,2.93-2.05,2.13-3.49.63-1.44-1.5-2.75-3.72-2.75-3.72,0,2.25.11,4.33.35,6.3.23,1.97.5,3.85.93,5.68.83,3.66,2.17,7.15,3.73,11.05-1.57-1.39-2.3.51-3.45,3.27.8,3.18,2.32,4.02,3.57,5.18,1.22,1.17,2.18,2.67,1.82,7.14-1.85-1.21-4.74-2.66-6.86-5.48,1.29,3.67,2.92,7.28,4.55,10.95,1.54,3.68,3.09,7.43,4.3,11.33-2.23,2.42-4.51-4.3-6.54-6.83.58,2.18,1.25,4.68,1.93,7.25.66,2.58,1.32,5.23,2.08,7.68,1.55,4.9,3.17,9.04,5.31,10.25l.91-5.93c.49,3.28-3.27,2.02-4.26-.3-4.02-7.3.13-11.21,1.53-11.86l1.58,5.6c1.96-1.71,2.71-4.02,2.66-6.67-.09-2.65-.94-5.66-2.06-8.78-1.08-3.14-2.63-6.36-3.87-9.53-.63-1.58-1.21-3.15-1.67-4.68-.48-1.53-.88-3.01-1.09-4.44,2.34,1.2,4.72,2.41,7.03,3.65-2.42-3.63-4.89-7.22-7.32-10.77.57-1.4,1.58-2.7,2.74-2.98,1.16-.27,2.47.48,3.46,3.24.37-2.22.31-3.76.03-4.93-.27-1.18-.72-2-1.15-2.78-.86-1.57-1.65-2.98-.74-6.9.35-.9.72-.62,1.12.05-1.21-2.54-2.5-5.06-3.74-7.57,1.66,1.26,3.95-2.39,4.28,2.76-.02-3.81-.62-7.14-1.59-10.02-.98-2.88-2.22-5.35-3.35-7.54-1.11-2.2-2.17-4.1-2.76-5.87-.59-1.77-.69-3.42.04-5.1l.72,1.08c-.99-2.39-1.79-4.2-2.51-5.54-.73-1.34-1.32-2.22-1.83-2.79-1.01-1.14-1.68-1.01-2.4-.7-1.43.62-3.07,1.93-7.96-4.44,2.46-4.42,4.86-8.9,7.25-13.46l-4.98-.35c-.58-2.04-1.76-6.07.24-5.99-5.73-6.25-1.39,1.96-5.77-1.25.04-1.37-.12-2.8-.42-4.25-.32-1.44-.78-2.92-1.32-4.39-1.09-2.94-2.39-5.93-3.66-8.66-2.51-5.47-4.22-10.2-1.43-12.75-2.36-.94-1.93,1.55-1.79,3.17.06.81.06,1.4-.36,1.23-.42-.17-1.27-1.11-2.97-3.3,2.91-3.03,1.27-5.77-1.17-8.94-2.51-3.15-5.84-6.7-6.31-11.67,4.89.69,6.93,9.64,5.98-.39-4.29-1-6.13-5.13-7.43-9.93-1.33-4.77-2.37-10.09-4.86-13.24-2.45,1.18-5.13-2.21-8.22-7.22-1.52-2.52-3.3-5.35-5.14-8.25-.93-1.44-1.88-2.9-2.89-4.3-1.03-1.39-2.09-2.73-3.19-3.98.98-.14-1.73-5.8-5.65-12.68-.98-1.72-1.97-3.56-3.05-5.37-1.08-1.82-2.16-3.66-3.22-5.45-2.08-3.62-4.14-7-5.64-9.76l.95-.27c-5.81,1.42-12.77-9.22-19.67-15.5,2.75-1.85,4.84-1.43,9.2,1.52-1.86-2.26-3.78-4.47-5.67-6.7-1.34-.22-2.63-.7-4.09-1.61-1.47-.91-3.17-2.2-5.28-4.11l4.55-1.08c-1.99-2.15-4.17-4.13-6.48-6.07-2.35-1.9-4.8-3.78-7.24-5.79-2.42-2.04-4.96-4.08-7.36-6.49-1.2-1.2-2.38-2.47-3.53-3.83-1.18-1.34-2.32-2.77-3.42-4.33-1.64,1.08-1.39,5.06-2.39,7.6-.99,2.55-3.21,3.67-9.63-.8,1.03-1.89,3.07-4.87,6.6-2.61-1.16-.73-4.58-2.12-5.96-4.59,2.34.55,4.61,1.2,6.93,1.82-3.79-5.84-4.55-.37-8.25-4.29,2.11-2.09-1.49-4.27.68-5.47,1.21.74,2.63,4.12,4.95,4.69-2.06-2.28-4.15-5-5.76-7.58-1.6-2.59-2.83-4.93-3-6.6-.72,1.61-2.66,2.97-6.27.28-2.19-1.9-3.37-3.13-3.93-4.05-.55-.92-.5-1.53-.28-2.08.42-1.1,1.45-1.96-.67-4.75-3.45-.29-7.92-6.61-10.85-3.28-2.63-2.15-1.84-4.16-2.12-5.93-1.48-.57-3.67-1.86-6.03-3.41-2.38-1.53-4.92-3.35-7.28-4.73-4.69-2.82-8.25-4.39-6.9-.49l1.06,1.16c-.29-.1-.56-.29-.9-.42l.04.03-.04-.03c-4.58-2.04-8.94-4.49-13.06-7.37-2.05-1.45-4.14-2.87-6.16-4.41-2.04-1.51-4.01-3.12-6.04-4.67-4.07-3.06-8.04-6.31-12.24-9.09-2.09-1.41-4.19-2.77-6.33-4.04-2.16-1.23-4.36-2.33-6.6-3.32l.75-1.28c-2.75-1.06-5.56-2.33-8.43-3.55-2.86-1.25-5.69-2.58-8.49-3.76-5.63-2.29-10.92-4.3-15.37-4.56-3.09-1.45-6.2-5.88-4.14-6.86-4.29-1.34-6.86-1.66-9.67-2.63-2.81-.99-5.92-2.47-11.43-6.03,9.29,1-2.01-3.3,9.24,1.73-5.13-2.79-8.1-5-11.43-6.6-3.36-1.52-7.06-2.55-13.61-2.78,2.65-1.08,1-2.93-2.05-4.61-3.05-1.69-7.46-3.22-10.3-3.51,1.16.86,2.32,1.69,3.46,2.57l3.41,2.64c-1.51-.39-2.96-.81-4.36-1.26-1.41-.42-2.78-.86-4.11-1.32-2.67-.93-5.23-1.93-7.81-2.93l4.35-3.84c-2.62-1.68-5.34-2.87-8.05-3.85-2.72-.95-5.42-1.7-8.15-2.16-5.45-.91-10.8-1.24-15.96-1.38-2.58-.1-5.1-.21-7.54-.44-2.45-.2-4.85-.46-7.16-.97-2.32-.49-4.54-1.22-6.71-2.2-2.17-.96-4.26-2.23-6.27-3.91-6.86,2.24,12.31,4.86,5.94,7.8-2.65-.68-5.25-1.76-7.72-3.02-1.24-.63-2.45-1.3-3.61-1.98-1.17-.67-2.3-1.32-3.37-1.98-4.3-2.61-7.73-5.02-9.45-5.28-3.66-1.21-6.44-1.49-8.78-1.29-2.34.19-4.23.89-6.15,1.66-1.91.75-3.84,1.53-6.25,1.9-1.2.18-2.53.26-4.04.18-1.51-.07-3.2-.25-5.14-.67,1.86,1.95,3.21,6.84-8.44,7.49-10.7-1.36-12.9-8.31-5.88-9.3,2.64.02,3.87.66,3.72,1.26,3.58-.45,8.3-.71,4.11-3.05l-1.56,1.65c-2.66-1.09-7.78-1.81-11.78-2.61-4-.76-6.89-1.51-5.04-2.92-8.45,1.38-3.67,2.79,2.44,3.94-7.01-1.56-12.55-1.83-18.14-1.75-2.79.03-5.6,0-8.62,0-3.02-.01-6.25-.14-9.91-.53,2.35.95,4.5,3.01,2.2,3.03-2.67-.25-4.81-.36-6.56-.34-1.74,0-3.08.1-4.13.25-2.09.31-3.03.86-3.74,1.49-.71.64-1.21,1.36-2.41,2-1.21.67-3.12,1.29-6.68,1.71-4.15-1.1-3.54-2.76-3.67-3.75-.12-.96-1.01-1.39-8.16.42-9.01-1.04-2.33-4.54,1.13-6.3-3.26,1.15-6.45,1.72-9.53,1.94-3.07.29-6.04.22-8.86,0-1.41-.11-2.78-.25-4.1-.41-1.32-.13-2.59-.25-3.81-.37-2.44-.23-4.66-.4-6.58-.29l6.84-2.41c-4.1,1.45-7.55,1.86-11.05,2.4,1.51.94,3.03,1.95,4.53,2.93-2.1-.04-4.01.1-5.42.08-1.41-.04-2.32-.27-2.4-1-3.82,3,4.13,5.32-3.61,9.83-2.85-.49-6.84.82-10.46,1.62-1.81.41-3.52.71-4.96.63-1.43-.05-2.59-.45-3.3-1.51,2.14-.28,3.71-.51,4.84-.74,1.13-.24,1.82-.49,2.2-.76.77-.54.33-1.13-.21-1.78-1.08-1.3-2.56-2.83,4.61-4.59-2.69,1.09-6.09,1.71-10.31,1.9-.72-.39.38-1.09,1.44-1.56-8.61-.35-10.23,1.41-11.76,3.63-1.55,2.2-3,5.03-11.33,7,.73-1.55-.54-2.54-2.33-2.98-1.79-.44-4.08-.27-5.37.37,6.75-1.77,4.3,3.44-1.24,7.05-5.57.4-8.32,1.68-10.37,2.92-2.05,1.25-3.4,2.53-6.18,3.23l6.53-.93c-.68,1.59-2.34,2.69-4.71,3.76-2.36,1.09-5.4,2.24-8.86,3.79-1.27-1.77,6.1-3.48,3.24-3.51-1.65,1.76-3.68,2.72-5.98,3.27-2.3.55-4.84.79-7.51.98-2.67.22-5.49.35-8.22,1-2.74.64-5.44,1.66-7.9,3.44-5.76.29-2.32-4.49-7.27-3.82-5.54,4.12-9.21,4.63-12.99,5.24-3.78.59-7.75,1.08-13.51,5.4,5.19,1.53,5.4.46-1.98,7.76l9.84-5.98,10-5.75-5.7,5.33c-1.89,1.76-3.77,3.54-5.6,5.38,3.1-1.46,6.21-3.37,9.02-5.16,2.81-1.78,5.34-3.34,7.38-3.82-2.67,2.65-3.88,3.77-3.94,4.35-.05.58,1.07.66,3.14,1.38-5.32-.58-9.31,1.95-13.27,4.87-3.94,2.97-7.95,6.08-13.55,6.9l-3.62-8.1c-4.13.96-7.75,2.47-11.06,4.49-1.66.99-3.27,2.07-4.85,3.21-.79.58-1.58,1.16-2.37,1.75-.77.62-1.56,1.24-2.34,1.87-6.3,5.04-12.89,10.59-22.52,15.28,2.22-.76,4.4-1.58,6.64-2.28-.34,2.21-3.02,4.07-6.31,5.94-1.64.94-3.42,1.89-5.1,2.92-1.66,1.06-3.23,2.19-4.47,3.43-1.09-2.83-5.29-1.36-8.79-1.25,1.54,1.6-13.05,8.76-11.06,14.78-3.3.82-6.68,1.59-9.96,2.52-3.66,2.31-6.17,4.61-8.02,6.97-1.83,2.37-3.06,4.74-4.24,7.09-.59,1.18-1.17,2.35-1.82,3.53-.62,1.2-1.31,2.39-2.13,3.59-1.62,2.41-3.83,4.77-7.06,7.28,1.61-5.69-5.46-2.38,1.5-11.31-2.12,1.78-4.23,3.36-5.63,4.72-1.38,1.38-2.08,2.51-1.43,3.3-1.81.38-4.05,3.65-6.45,7.03-2.38,3.41-4.97,6.87-7.8,7.57-.78,2.55.84,5.32-3.72,9.43-.9.04-1.01-1.06-1.01-1.06.51.54-.88,2.55-1.57,4.3-.69,1.75-.75,3.16,2.28,2.41-9.13,2.71-17.29,11.33-24.56,20.23-.92,1.1-1.84,2.2-2.75,3.3-.9,1.1-1.79,2.2-2.66,3.28-1.77,2.15-3.55,4.19-5.33,6.06-3.48,3.82-7.11,6.85-10.92,8.55-6.65,10.05-14.24,22.35-20.11,31.48-.35-1.07-1.21-.85.18-2.4-5.27,5.51-4.78,8.61-4.42,11.87.42,3.31.63,6.71-5.08,13.11-4.25,2.49-3.67.23-2.54-2.21,1.13-2.43,2.88-4.98.66-3.16-4.82-1.57-7.15,3.11-9.66,8.97-1.24,2.94-2.4,6.24-3.99,9.22-1.6,2.97-3.45,5.72-6.06,7.61l.8-2.75c-3.52,3.14-5.29,8.35-6.83,14.39-1.65,6-3.04,12.81-6.35,19.19,0,0-.5-.99-1.31-.68.14,2.77-.11,5.94-.64,9.34-.55,3.39-1.21,7.08-2.1,10.79-.91,3.71-1.79,7.54-2.75,11.25-.47,1.86-.98,3.67-1.41,5.46-.43,1.79-.86,3.53-1.26,5.2-2.18-5.28.17-6.56-4.34-5.4-1.53,6.01,6.43.42,3.44,12.29-3.18,3.1-7.71,10.94-11.94,10.9,1.02-3.76,2.23-7.46,3.34-11.2-3.45,2.01-4.63,5.65-5.18,9.47-.52,3.84-.51,7.83-1.83,10.65l-2.02-1.4c-1.07,4.38-1.41,7.8-1.54,10.72-.14,2.91.09,5.36.27,7.83.18,2.47.31,4.96.09,7.98-.19,3.03-.64,6.62-1.77,11.27l2.15-1.56c1.72,5.68.59,7.64-.83,9.59-1.37,1.94-3.05,3.87-1.77,9.37l-6.35,2.12c.07,1.77.21,4.21.37,7.06.21,2.84.45,6.1.7,9.54.19,3.41.5,7,.68,10.49.18,3.49.26,6.89.3,9.98-1.93-3.67-2.91-9.17-3.71-14.94-.43-2.89-.61-5.82-.89-8.63-.25-2.81-.55-5.49-.82-7.82-.55,3.41-1.24,9.25-1.49,14.71-.14,5.48.13,10.57,1.38,12.49-.26-2.8-1.3-6.44-.08-9.06,1.84,4.47,2.96,9.46,3.66,15.04.34,2.79.45,5.71.53,8.78.08,3.08,0,6.3-.24,9.67-5.69-1.53-6.89,7.34-7.51,17.81-.14,2.62-.28,5.33-.42,8.01-.19,2.68-.28,5.32-.58,7.8-.28,2.48-.69,4.79-1.31,6.8-.59,2.01-1.35,3.73-2.42,5.02.65,3.04,1.12,6.07,1.5,9.1.43,3.03.74,6.07.96,9.13.18,3.06.39,6.13.54,9.23.16,3.1.17,6.23.32,9.39.41,12.64.98,25.91,3.87,39.93,6.89-11.52,1.81,8.13,10.48,4.65.88,3.16,1.49,5.33,1.77,6.82.28,1.49.27,2.28.04,2.63-.44,6.86-.57,13.72-.73,20.66-.67,2.63-1.58,1.25-2.53-.68-.91-1.93-1.88-4.4-2.8-3.85.35,1.79.57,3.25.7,4.44.14,1.19.2,2.11.17,2.84-.05,1.47-.41,2.2-.87,2.8-.91,1.2-2.19,1.84-2.08,6.89,1.33-1.41,2.76-.48,4.07,1.82,1.32,2.3,2.45,5.98,3.05,10.17l.71-12.45c2.62,4.54,3.78,7.97,4.21,10.89.45,2.91.25,5.29,0,7.69-.23,2.4-.48,4.83.07,7.77.58,2.93,1.93,6.4,4.78,10.84l-4.89-5.19c1.3,2.36,2.69,5.88,4.45,9.85,1.72,3.98,3.58,8.51,5.79,12.87,1.08,2.19,2.21,4.36,3.36,6.44,1.21,2.05,2.45,4.01,3.72,5.79,1.27,1.78,2.57,3.39,3.89,4.75,1.36,1.34,2.73,2.44,4.11,3.22-.18,2.12-1.4,5.43-3.97,1.49,1.23,2.91,2.57,5.87,4.15,8.78,1.59,2.9,3.3,5.8,5.07,8.69,3.67,5.71,7.58,11.37,11.54,16.76,1.95,2.72,3.85,5.4,5.75,7.99,1.88,2.6,3.62,5.19,5.26,7.7,3.35,4.99,5.99,9.9,7.77,14.57l-2.93-.37c3.16,3.57,7.93,4.53,9.44,10.59-.94.28-2.92-.29-1.79,1.58,1.03.8,3.61,2.82,6.25,5.33,2.7,2.48,5.45,5.46,6.75,8.35l-5.17-2.8c6.03,10.85,13.22,17.32,20.43,22.9,3.65,2.76,7.37,5.27,11.02,8.02,3.75,2.66,7.42,5.6,11.14,9.08-2.45,2.2-.81,7.2,2.23,12.64,3.13,5.35,7.63,11.15,10.77,14.88l-.9.43c10.02,10.37,20.08,17.58,30.35,23.86,5.09,3.21,10.35,6.04,15.61,9.1,5.37,2.92,10.75,6.05,16.48,9.34,4.43,7.76,15.5,16.35,28.19,24.7,12.69,8.38,27.05,16.36,37.97,24.18-3.07-2.9,2.94-4.27,7.41-2.8,1.23.99,2.93,1.7,4.73,2.29,1.8.59,3.72.98,5.36,1.45,3.28.92,5.5,1.99,3.8,4.54l-1.95-1.04c.43,1.84,1.53,3.47,3.07,4.95,1.56,1.44,3.57,2.72,5.81,3.89,4.46,2.41,9.9,4.21,14.5,6.18l4.45-6.74c4.95,5.01,11.56,8.83,18.87,11.65,3.63,1.48,7.46,2.63,11.31,3.69,1.93.52,3.85,1.05,5.78,1.5,1.94.43,3.86.85,5.77,1.26,15.26,3.27,29.1,5.2,34.95,11.71,3.29-.32,6.81.02,10.35.18,3.54.18,7.06.36,10.28-.04l-1.08,4.12c4.25,1.02,7.99,1.85,11.52,2.64,3.53.79,6.9,1.32,10.39,1.91,1.75.27,3.52.57,5.39.79,1.86.21,3.8.42,5.86.62,2.06.2,4.23.39,6.57.57,2.34.11,4.84.23,7.54.36l-4.67,2.63c6.1.67,10.2-1.99,14.11-4.91,1.96-1.44,3.87-2.9,5.97-3.98,2.11-1.07,4.41-1.75,7.17-1.73l3.08,6.46c10.54.41,21.16,1.75,31.81,2.24,2.66.13,5.32.1,7.97.06,2.65-.07,5.3-.16,7.94-.47,2.63-.31,5.25-.73,7.85-1.3,1.3-.28,2.59-.6,3.88-.96,1.28-.38,2.56-.82,3.83-1.29-.26.95-.73,2.85-4.14,3.38,4.98-.34,14.73-.06,22.65-1.1,3.97-.44,7.46-1.25,9.66-2.4,2.2-1.15,3.09-2.66,1.89-4.69.26,1.39,1.75,1.94,4,1.9,2.26-.03,5.26-.76,8.57-1.74,1.65-.5,3.38-1.07,5.12-1.69,1.74-.65,3.48-1.36,5.19-2.06,3.41-1.43,6.68-2.79,9.31-4.04l-.88,4.47c8.3-7.29,8.26-8.66,20.78-13.28,3.18-.23,3.51,2.58-.82,2.55,2.69-.07,4.46-.53,5.81-1.14,1.35-.61,2.28-1.37,3.27-2.15,1.98-1.58,4.23-3.11,10.62-3.89l-3.8,3.92c10.47-2.81,9.28-3.84,13.96-8.66,5.93-3.57,19.61-5.55,22.45-2.58.58-2.71,5.01-7.61,11.28-8.94,1.32,1-.49,2.71-1.42,3.53,4.45-1.03,8.13-2.49,11.33-4.07,3.18-1.63,5.87-3.45,8.41-5.13,2.55-1.66,4.9-3.31,7.43-4.61,2.53-1.31,5.27-2.21,8.5-2.67.84,1.13,1.87,1.39,2.98,1.31-3.22,1.61-6.36,3-9.18,4.28-2.83,1.26-5.34,2.43-7.46,3.27-4.23,1.73-6.69,2.66-6.25,2.3,1.49,3.55,12.58-.56,6.12,8.07,1.88-1.63,4.09-3.56,6.42-5.73,2.34-2.16,4.87-4.45,7.5-6.63,2.63-2.19,5.31-4.37,8.05-6.14,2.75-1.76,5.49-3.28,8.22-4.21.66.07,1.31.15,1.96.48l-.84.93c2.51-.9,4.44-2.3,6.09-3.93,3.48-1.22,5.74-1.94,8.83-3.6.69.53,1.82.48,3.22.05,1.38-.45,3.02-1.28,4.73-2.26,1.71-.98,3.49-2.12,5.17-3.18,1.68-1.07,3.2-2.13,4.47-2.87-2.62-3.34,4.19-6.78-3.69-5.97.93-.24-.66,1.02-3.86,3.18-.69.55-1.54,1.13-1.9,1.63.04-.16.09-.34.15-.52-3.23,2.02-7.41,4.72-12.33,7.48,2.99-4.07,6.12-8.07,12.83-9.31,1.16-3.84,2.41-7.96,3.26-10.02,9.79.96,24.26-5.05,28.08-3.35,6.69-6.03,14.86-12.63,21.82-19.4,3.44-3.43,6.58-6.89,9.07-10.29,2.44-3.47,4.24-6.87,5.06-10.15,3.1-4.03,5.8-2.08,8.04-2.39-1.65,2.51-4.29,4.74-4.77,6.6,1.6-2,3.7-4.34,6.01-6.71,1.15-1.19,2.34-2.4,3.52-3.62,1.15-1.24,2.29-2.48,3.37-3.7,2.15-2.45,4.08-4.77,5.27-6.91,1.19-2.13,1.72-3.99,1.18-5.39,5.36-3.49,5.01-1.37,4.76.07-.13.72-.22,1.25.45.81.67-.45,2.14-1.84,5-5.12l-.44,2.87c3.77-2.3,7.11-4.78,10-7.5,2.87-2.74,5.4-5.6,7.64-8.6,2.2-3.03,4.17-6.16,6.02-9.32,1.81-3.2,3.47-6.47,5.17-9.72,3.33-6.56,6.69-13.14,11.06-19.62,2.24-3.2,4.65-6.44,7.54-9.59,2.93-3.13,6.13-6.31,10.01-9.38-2.07,1.76-3.08,2.65-4.14,2.56,7.24-8.05,13.39-17.14,19.09-26.55,2.74-4.77,5.52-9.55,8-14.49,1.26-2.46,2.55-4.91,3.76-7.39l3.59-7.48c1.22-2.48,2.35-5,3.5-7.5,1.16-2.5,2.32-5,3.47-7.49,2.22-5.03,4.61-9.96,6.88-14.92,4.72-9.84,9.43-19.58,15.04-28.88,2.77-5.45,3.43-8.79,3.39-11.73-.11-2.96-.92-5.51-1.06-9.41l5.13-1.12c-.4-4.55-.91-9.08-1.39-13.56.3-4.53,1.54-8.46,3.34-12.2,1.74-3.75,3.9-7.34,6.04-11.11,2.1-3.79,4.02-7.8,5.35-12.34.64-2.27,1.05-4.69,1.26-7.27.18-2.58.2-5.32-.25-8.27-1.16.79-2.31,1.57-3.51,2.34.53-1.96.88-4.55,1.25-7.29.34-2.74.76-5.62,1.05-8.21.64-5.18,1.48-9.15,3.13-8.25-.43-.9-2.77-3.03-.85-5.98l2.38.04c-.3-3.39-.57-6.76-.91-10.12l-1.15-10.07c1.44-7.58,3.68-6.85,5.91-6.98,1.1-.07,2.18-.36,3.11-2.07.91-1.7,1.74-4.81,2.03-10.51-.15-2.13-.59-4.72-1.21-7.34-.65-2.62-1.52-5.29-2.39-7.57-1.75-4.57-3.61-7.63-4.42-6.07-.16,3.38-1.58,8.59-3.96,8.79l-1.14-7.58c-3.48-.7-7-2.47-10.28-1.79-3.27.69-6.33,3.8-8.87,12.68l3.79,12.66-3.64,3.84c.19-3.49.23-6.99.29-10.49-1.72,2.91-1.86,5.32-1.45,7.56.41,2.23,1.47,4.3,2.3,6.48-1.87.88-3.22,2.54-4.06,4.94,1.85,4.21,3.72,8.49,5.55,12.81-1.44.6-2.63-.91-3.8-1.56-1.16-.65-2.18-.43-3.41,3.54,2.43,6.05,6.72-4.85,7.66,4.89-1.92,2.81-3.47,3.68-4.3,4.78-.86,1.09-1.02,2.39-.16,6.06-1.92.73-2.85-.91-3.25-3.75.62,3.22.33,7.35.15,11.11-.2,3.76-.14,7.19,1.43,9.11-2.43,2.75-3.24,7.95-4.13,12.28-.97,4.31-2.17,7.7-5.32,6.69.55,1.12,1.29,4.08,1.63,7.47.34,3.39.4,7.22-.15,10.06-2.61-6.07-3.91-.86-5.79,5.16-1.76,6.06-4.17,12.91-7.82,10.38,1.14,2.33,1.48,5.26,1.14,8.49-.33,3.23-1.16,6.83-2.2,10.55-1.11,3.7-2.33,7.56-3.4,11.36-1.13,3.78-2.02,7.54-2.33,11.11-.24-.92-.78-2.75-.01-3.75-1.61,3.51-3.25,5.54-4.77,7.23-1.53,1.68-3.01,3.01-4.56,5.02,5.01,3.16,1.5,14.79,1.9,22.24-4.59,3.13-5.52,1.04-6.1-1.72-.58-2.77-.81-6.22-3.91-6.03,2.25.78,1.63,4.99.99,8.86-.69,3.84-1.34,7.36,1.16,6.8-6.35,4.93-4.34,4.83-10.38,5.87,5.89,4.54-1.96,6.54-.99,13.92-8.29,7.38-7.25-1.04-11.12,9.97-2.35,1.76-2.79.11-2.65-1.96.14-2.07.86-4.57.86-4.57ZM740.63,951.96s-.03-.06-.04-.07c2.06-1.2,3.82-2.22,4.94-2.87-1.02.61-2.43,1.46-4.9,2.95ZM719.77,962.21c2.63-1.06,5.85-2.49,9.2-4.14,1.36.93,1.24,2.72-.93,3.63.74-1.41-4.62.15-8.27.5ZM778.14,964.68c-3.06,2.5-4.6,2.45-5.5,1.95,1.57-.96,3.33-2.2,5.61-3.88.02-.19.13-.47.13-.68.09.88.11,1.75-.25,2.61Z"/>
      <path class="cls-1" d="M781.31,956.38c.43-.36.6-.67,1.2-1.09-.86.11-1.67.21-2.46.38-.17.62-.36,1.24-.49,1.83.59-.38,1.2-.76,1.75-1.11Z"/>
      <path class="cls-1" d="M812.48,107.17l-.35-.38c.24.38.46.75.51,1.11-.15-.36-.08-.47-.15-.74Z"/>
      <polygon class="cls-1" points="407.9 986.2 407.69 987.25 409.85 986.76 407.9 986.2"/>
      <path class="cls-1" d="M897.44,207.04c-.13.43-.13,1.04.22,1.99.17-.23,0-1.04-.22-1.99Z"/>
      <path class="cls-1" d="M929.33,252.54c.99,2.47,1.93,4.97,2.9,7.45-1.08-3.32-2.02-5.65-2.9-7.45Z"/>
      <path class="cls-1" d="M948.96,290.4c.91.13,1.47,0,1.99-.1,0-.03-.02-.06-.01-.09l-1.98.19Z"/>
      <path class="cls-1" d="M375.13,54.79c-.54.18-1.06.39-1.5.64-3.4,1.89-1.03.81,1.5-.64Z"/>
      <path class="cls-1" d="M573.23,27.32c-2.23.52-4.42,1.02-6.69,1.24,3.55.73,6.31,1.13,6.69-1.24Z"/>
      <path class="cls-1" d="M188.02,169.16s-.02-.03-.03-.07c-.33.33-.65.6-.99.93l1.03-.86Z"/>
      <path class="cls-1" d="M557.17,27.66c3.52,1.16,6.52,1.24,9.37.91-2.91-.54-6.35-1.28-9.37-.91Z"/>
      <path class="cls-1" d="M1000.29,465.84l.06,2.04c.27-.06.51.04.7.17l-.75-2.22Z"/>
      <path class="cls-1" d="M1001.04,468.06l.7,2.21c-.09-1.04-.2-1.94-.7-2.21Z"/>
      <path class="cls-1" d="M1003.22,474.94l-1.48-4.67c.14,1.65.18,3.69,1.48,4.67Z"/>
      <path class="cls-1" d="M993.09,410.13l-1.63-.29c.38.27.92.38,1.63.29Z"/>
      <path class="cls-1" d="M988.63,393.63c.39,2,.17,4.7.2,7.52,0,2.83.28,5.78,1.34,8.44l1.3.25c-1.37-1.06-1.21-4.3-1.14-7.7.06-3.4.1-6.98-1.69-8.51Z"/>
      <path class="cls-1" d="M982.94,318.79c1.56,4.72,3.04,9.47,4.5,14.21.31-1.51.6-3.25,1.22-3.86.6-.6,1.57-.09,2.96,3.02-1.23-9.67-1.77-8.42-2.75-7.06-1.01,1.36-2.49,2.8-5.94-6.31Z"/>
      <path class="cls-1" d="M965.01,276.13c4.42,6.75,2.04-1.2,3.05-1.27-1.83-1.92-3.06-3.06-3.54-3.02-.51.06-.28,1.29.49,4.28Z"/>
      <path class="cls-1" d="M724.06,52.26l2.31-3.18c-5.94-2-.66,1.33-2.31,3.18Z"/>
      <path class="cls-1" d="M658.37,48.87c1.62,1.31,3.23,2.6,4.81,3.97l3.69-2.5c-2.83-.53-5.65-1.05-8.5-1.47Z"/>
      <polygon class="cls-1" points="629.18 12.97 631.98 13.02 621.45 12.15 629.18 12.97"/>
      <path class="cls-1" d="M117.62,190.32l4.84,1.55c2.06-3.73-1.44-7.86-4.84-1.55Z"/>
      <path class="cls-1" d="M16.52,410.53c-2.93,2.07-5.71,8.58-4.22,13.17.68-2.67,1.72-5.26,2.59-7.53.85-2.28,1.65-4.21,1.63-5.64Z"/>
      <path class="cls-1" d="M336.63,1004.4l-5.21-.29c3.09.69,6.15,1.43,9.26,2.03-1.35-.58-2.71-1.12-4.05-1.74Z"/>
    </g>
  </g>
</svg>